<?xml version="1.0" encoding="UTF-8"?>
<svg version="1.1" xmlns="http://www.w3.org/2000/svg" width="696" height="724">
<path d="M0 0 C229.68 0 459.36 0 696 0 C696 238.92 696 477.84 696 724 C466.32 724 236.64 724 0 724 C0 485.08 0 246.16 0 0 Z " fill="#FEFEFE" transform="translate(0,0)"/>
<path d="M0 0 C229.68 0 459.36 0 696 0 C696 9.24 696 18.48 696 28 C466.32 28 236.64 28 0 28 C0 18.76 0 9.52 0 0 Z " fill="#F1F2F4" transform="translate(0,0)"/>
<path d="M0 0 C45.21 0 90.42 0 137 0 C137 9.57 137 19.14 137 29 C91.79 29 46.58 29 0 29 C0 19.43 0 9.86 0 0 Z " fill="#1EB99B" transform="translate(143,282)"/>
<path d="M0 0 C44.88 0 89.76 0 136 0 C136 9.57 136 19.14 136 29 C91.12 29 46.24 29 0 29 C0 19.43 0 9.86 0 0 Z " fill="#3997D6" transform="translate(300,282)"/>
<path d="M0 0 C32.67 0 65.34 0 99 0 C99 9.57 99 19.14 99 29 C66.33 29 33.66 29 0 29 C0 19.43 0 9.86 0 0 Z " fill="#96A5A5" transform="translate(456,282)"/>
<path d="M0 0 C30.03 0 60.06 0 91 0 C91 9.57 91 19.14 91 29 C60.97 29 30.94 29 0 29 C0 19.43 0 9.86 0 0 Z " fill="#2F3F50" transform="translate(303,116)"/>
<path d="M0 0 C8.58 0 17.16 0 26 0 C26 8.25 26 16.5 26 25 C17.42 25 8.84 25 0 25 C0 16.75 0 8.5 0 0 Z " fill="#A9ACB2" transform="translate(202,56)"/>
<path d="M0 0 C1.01673766 0.00829614 2.03347532 0.01659227 3.08102322 0.02513981 C4.24355114 0.0321793 5.40607906 0.03921879 6.60383511 0.0464716 C7.89064175 0.05941761 9.17744839 0.07236362 10.50324917 0.08570194 C11.86298214 0.09583899 13.22271847 0.10553328 14.58245754 0.11481571 C18.28480569 0.14135425 21.98707611 0.17412182 25.68936372 0.20796561 C29.55441684 0.24225188 33.41951172 0.27086805 37.28460598 0.30007267 C44.60863117 0.35628121 51.93260407 0.41762642 59.25657219 0.48079401 C67.5925608 0.55244167 75.92859135 0.61839812 84.26463044 0.68386447 C101.41706008 0.81869771 118.56942297 0.96071722 135.72175503 1.10743046 C135.72175503 1.43743046 135.72175503 1.76743046 135.72175503 2.10743046 C90.51175503 2.10743046 45.30175503 2.10743046 -1.27824497 2.10743046 C-1.27824497 11.67743046 -1.27824497 21.24743046 -1.27824497 31.10743046 C43.93175503 31.10743046 89.14175503 31.10743046 135.72175503 31.10743046 C135.72175503 31.76743046 135.72175503 32.42743046 135.72175503 33.10743046 C90.18175503 33.10743046 44.64175503 33.10743046 -2.27824497 33.10743046 C-3.41148592 29.70770763 -3.40766953 27.08885944 -3.41105747 23.50586796 C-3.41234653 22.21164921 -3.4136356 20.91743046 -3.41496372 19.58399296 C-3.412869 18.9114246 -3.41077427 18.23885624 -3.40861607 17.54590702 C-3.40324647 15.48300731 -3.40857858 13.42032357 -3.41496372 11.35743046 C-3.41367466 10.06578983 -3.4123856 8.77414921 -3.41105747 7.44336796 C-3.40992954 6.25275761 -3.40880161 5.06214725 -3.4076395 3.8354578 C-3.23294875 0.15244944 -3.23294875 0.15244944 0 0 Z " fill="#E2FEFE" transform="translate(144.278244972229,279.89256954193115)"/>
<path d="M0 0 C0.66 0 1.32 0 2 0 C2.33 0.99 2.66 1.98 3 3 C3.66 2.01 4.32 1.02 5 0 C5.66 0 6.32 0 7 0 C7.33 0.99 7.66 1.98 8 3 C8.66 2.01 9.32 1.02 10 0 C10.58700684 0.0714624 11.17401367 0.1429248 11.77880859 0.21655273 C18.41772111 0.96049038 24.94919531 1.12043422 31.625 1.0625 C32.62917969 1.05798828 33.63335937 1.05347656 34.66796875 1.04882812 C37.11204471 1.03718967 39.5559882 1.0208424 42 1 C42 1.66 42 2.32 42 3 C42.804375 2.979375 43.60875 2.95875 44.4375 2.9375 C47 3 47 3 48 4 C48.04063832 5.66617115 48.042721 7.33388095 48 9 C45.36 9 42.72 9 40 9 C40 7.35 40 5.7 40 4 C37.2160817 5.39195915 37.02101003 7.15575779 36 10 C29.1832664 11.1154655 22.79127367 10.87184518 15.94165039 10.31860352 C12.37360425 10.04900339 9.43687357 10.02150188 6 11 C3.25 10.0625 3.25 10.0625 1 9 C0.67 6.03 0.34 3.06 0 0 Z " fill="#33B59D" transform="translate(210,292)"/>
<path d="M0 0 C1.55460937 -0.00580078 1.55460937 -0.00580078 3.140625 -0.01171875 C4.13835937 -0.01042969 5.13609375 -0.00914062 6.1640625 -0.0078125 C7.52072021 -0.00612061 7.52072021 -0.00612061 8.90478516 -0.00439453 C11.20404603 0.11604511 13.17237467 0.47815144 15.375 1.125 C15.625 6.75 15.625 6.75 13.375 10.125 C15.025 10.125 16.675 10.125 18.375 10.125 C18.375 10.455 18.375 10.785 18.375 11.125 C5.175 11.125 -8.025 11.125 -21.625 11.125 C-20.625 4.125 -20.625 4.125 -19.4375 2.25 C-14.0045375 -1.12218362 -6.16488426 -0.02317626 0 0 Z " fill="#2E3D4E" transform="translate(346.625,133.875)"/>
<path d="M0 0 C0.7115625 -0.01546875 1.423125 -0.0309375 2.15625 -0.046875 C5.62425927 -0.02099433 7.64602231 0.24011764 10.46875 2.3125 C12.71317952 5.51882789 12.54524835 7.68326155 12 11.5 C10.46875 13.6875 10.46875 13.6875 8 15.5 C5.16934716 15.90100915 2.81653341 16.06122899 0 16 C-0.7115625 16.01546875 -1.423125 16.0309375 -2.15625 16.046875 C-5.62425927 16.02099433 -7.64602231 15.75988236 -10.46875 13.6875 C-12.71317952 10.48117211 -12.54524835 8.31673845 -12 4.5 C-8.79150079 -0.0835703 -5.21799385 -0.11343465 0 0 Z " fill="#F3F3F3" transform="translate(308,370.5)"/>
<path d="M0 0 C1.32 0 2.64 0 4 0 C4.99 3.3 5.98 6.6 7 10 C9.18975773 6.71536341 9.99806563 3.79303725 11 0 C12.65 0 14.3 0 16 0 C17.32 4.29 18.64 8.58 20 13 C20.99 8.71 21.98 4.42 23 0 C24.32 0 25.64 0 27 0 C25.68882339 7.11120489 23.98279484 14.04699943 22 21 C20.35 20.67 18.7 20.34 17 20 C16.01 16.04 15.02 12.08 14 8 C11.51652173 14.35954397 11.51652173 14.35954397 10 21 C8.35 21 6.7 21 5 21 C4.35269196 18.43786446 3.70710712 15.87531515 3.0625 13.3125 C2.88009766 12.59126953 2.69769531 11.87003906 2.50976562 11.12695312 C1.58174093 7.43172752 0.70201539 3.74654531 0 0 Z " fill="#262A33" transform="translate(281,56)"/>
<path d="M0 0 C6.27 0 12.54 0 19 0 C19 6.27 19 12.54 19 19 C12.73 19 6.46 19 0 19 C0 16.03 0 13.06 0 10 C0.99 10.33 1.98 10.66 3 11 C2.34 11 1.68 11 1 11 C1.33 12.65 1.66 14.3 2 16 C2.99 15.67 3.98 15.34 5 15 C6.9375 14.8671875 6.9375 14.8671875 9 14.875 C9.680625 14.87242188 10.36125 14.86984375 11.0625 14.8671875 C13 15 13 15 16 16 C16 13.36 16 10.72 16 8 C15.2575 8.845625 14.515 9.69125 13.75 10.5625 C12.8425 11.366875 11.935 12.17125 11 13 C8.6875 12.8125 8.6875 12.8125 7 12 C8.32 11.34 9.64 10.68 11 10 C11 9.34 11 8.68 11 8 C7.37 8.33 3.74 8.66 0 9 C0 6.03 0 3.06 0 0 Z " fill="#5A4F42" transform="translate(206,59)"/>
<path d="M0 0 C1.32 0.33 2.64 0.66 4 1 C6.33491639 0.67794257 8.66842508 0.34541851 11 0 C11.66 0.33 12.32 0.66 13 1 C13.969375 0.814375 14.93875 0.62875 15.9375 0.4375 C19 0 19 0 22 2 C22.29296875 5.2578125 22.29296875 5.2578125 22.1875 9.125 C22.16042969 10.40632813 22.13335937 11.68765625 22.10546875 13.0078125 C22.07066406 13.99523437 22.03585937 14.98265625 22 16 C20.68 16 19.36 16 18 16 C17.67 12.04 17.34 8.08 17 4 C16.01 4 15.02 4 14 4 C13.67 7.96 13.34 11.92 13 16 C11.68 16 10.36 16 9 16 C8.67 12.04 8.34 8.08 8 4 C7.01 4 6.02 4 5 4 C4.67 7.96 4.34 11.92 4 16 C2.68 16 1.36 16 0 16 C0 10.72 0 5.44 0 0 Z " fill="#2C2F34" transform="translate(363,61)"/>
<path d="M0 0 C3.80484394 0.71340824 5.4511805 1.6388541 8 4.5625 C8.625 8 8.625 8 8 11.5625 C5.55401113 14.94371991 4.10703441 16.33186783 0 17.1875 C-4.0743356 16.33868008 -5.54405875 14.88524404 -8 11.5625 C-8.625 8.5625 -8.625 8.5625 -8 5.5625 C-5.53959272 2.23371368 -4.10389613 0.76948052 0 0 Z " fill="#272A33" transform="translate(483,60.4375)"/>
<path d="M0 0 C3.80484394 0.71340824 5.4511805 1.6388541 8 4.5625 C8.625 8 8.625 8 8 11.5625 C5.55401113 14.94371991 4.10703441 16.33186783 0 17.1875 C-4.0743356 16.33868008 -5.54405875 14.88524404 -8 11.5625 C-8.625 8.5625 -8.625 8.5625 -8 5.5625 C-5.53959272 2.23371368 -4.10389613 0.76948052 0 0 Z " fill="#2E2E30" transform="translate(465,60.4375)"/>
<path d="M0 0 C0 3.3 0 6.6 0 10 C-4.84116096 10 -9.22376072 9.83065031 -14 9 C-14 9.66 -14 10.32 -14 11 C-16.64 11 -19.28 11 -22 11 C-21.34 7.7 -20.68 4.4 -20 1 C-18.77023438 1.14308594 -18.77023438 1.14308594 -17.515625 1.2890625 C-16.43796875 1.39992188 -15.3603125 1.51078125 -14.25 1.625 C-13.18265625 1.74101562 -12.1153125 1.85703125 -11.015625 1.9765625 C-6.8012087 2.00931703 -4.31186412 0 0 0 Z " fill="#3CB69D" transform="translate(208,291)"/>
<path d="M0 0 C8.58 0 17.16 0 26 0 C26 8.25 26 16.5 26 25 C17.42 25 8.84 25 0 25 C0 16.75 0 8.5 0 0 Z M2 2 C2 9.26 2 16.52 2 24 C9.26 24 16.52 24 24 24 C24 16.74 24 9.48 24 2 C16.74 2 9.48 2 2 2 Z " fill="#2F2E35" transform="translate(202,56)"/>
<path d="M0 0 C3.625 0.1875 3.625 0.1875 6.625 2.1875 C7.13671875 5.4453125 7.13671875 5.4453125 7.3125 9.3125 C7.37824219 10.59382813 7.44398438 11.87515625 7.51171875 13.1953125 C7.54910156 14.18273437 7.58648437 15.17015625 7.625 16.1875 C6.87605469 16.01089844 6.12710937 15.83429688 5.35546875 15.65234375 C2.46847218 15.01355002 2.46847218 15.01355002 -1.0625 15.75 C-2.7021875 15.9665625 -2.7021875 15.9665625 -4.375 16.1875 C-6.375 14.1875 -6.375 14.1875 -6.5 11.5625 C-6.45875 10.77875 -6.4175 9.995 -6.375 9.1875 C0.375 6.1875 0.375 6.1875 2.625 6.1875 C2.295 5.5275 1.965 4.8675 1.625 4.1875 C-0.355 4.5175 -2.335 4.8475 -4.375 5.1875 C-4.375 0.24305556 -4.375 0.24305556 0 0 Z " fill="#2F2B2A" transform="translate(394.375,60.8125)"/>
<path d="M0 0 C3.625 0.1875 3.625 0.1875 6.625 2.1875 C7.13671875 5.4453125 7.13671875 5.4453125 7.3125 9.3125 C7.37824219 10.59382813 7.44398438 11.87515625 7.51171875 13.1953125 C7.54910156 14.18273437 7.58648437 15.17015625 7.625 16.1875 C6.87605469 16.01089844 6.12710937 15.83429688 5.35546875 15.65234375 C2.46847218 15.01355002 2.46847218 15.01355002 -1.0625 15.75 C-2.7021875 15.9665625 -2.7021875 15.9665625 -4.375 16.1875 C-5.035 15.5275 -5.695 14.8675 -6.375 14.1875 C-6 11.0625 -6 11.0625 -5.375 8.1875 C-2.735 7.5275 -0.095 6.8675 2.625 6.1875 C2.295 5.5275 1.965 4.8675 1.625 4.1875 C-0.355 4.5175 -2.335 4.8475 -4.375 5.1875 C-4.375 0.24305556 -4.375 0.24305556 0 0 Z " fill="#302E34" transform="translate(315.375,60.8125)"/>
<path d="M0 0 C1.32 0 2.64 0 4 0 C4.33 2.97 4.66 5.94 5 9 C5.391875 8.34 5.78375 7.68 6.1875 7 C8 5 8 5 10.6875 4.75 C11.450625 4.8325 12.21375 4.915 13 5 C12.484375 5.53625 11.96875 6.0725 11.4375 6.625 C9.73155374 8.94805876 9.73155374 8.94805876 10.125 11.875 C11.05214303 15.1862251 12.35115573 17.98906699 14 21 C12.35 21 10.7 21 9 21 C8.01 19.02 7.02 17.04 6 15 C5.67 15 5.34 15 5 15 C4.67 16.98 4.34 18.96 4 21 C2.68 21 1.36 21 0 21 C0 14.07 0 7.14 0 0 Z " fill="#312830" transform="translate(416,56)"/>
<path d="M0 0 C2.375 1.6875 2.375 1.6875 4 4 C4 5.65 4 7.3 4 9 C0.7 9 -2.6 9 -6 9 C-5.01 10.485 -5.01 10.485 -4 12 C-2.00043389 12.04165763 0.00043389 12.04165763 2 12 C2.66 12.66 3.32 13.32 4 14 C0.5970516 16.09412209 -2.03621385 16.57805215 -6 16 C-9.16196359 13.25408425 -9.91691332 11.59199258 -10.5 7.4375 C-10 4 -10 4 -8.375 1.5625 C-5.28314769 -0.47161336 -3.63632575 -0.60605429 0 0 Z " fill="#212A37" transform="translate(345,61)"/>
<path d="M0 0 C1.18613892 0.00785522 1.18613892 0.00785522 2.39624023 0.01586914 C3.67724609 0.02070312 3.67724609 0.02070312 4.98413086 0.02563477 C5.88196289 0.03401367 6.77979492 0.04239258 7.70483398 0.05102539 C8.6065332 0.05553711 9.50823242 0.06004883 10.43725586 0.06469727 C12.67234712 0.07652315 14.90730835 0.09300319 17.14233398 0.11352539 C15.82983398 1.61352539 15.82983398 1.61352539 14.14233398 3.11352539 C13.15233398 3.11352539 12.16233398 3.11352539 11.14233398 3.11352539 C11.14233398 3.77352539 11.14233398 4.43352539 11.14233398 5.11352539 C11.80233398 5.44352539 12.46233398 5.77352539 13.14233398 6.11352539 C12.60608398 6.81477539 12.06983398 7.51602539 11.51733398 8.23852539 C9.7705429 11.11048566 9.7705429 11.11048566 10.95483398 14.42602539 C11.34670898 15.31290039 11.73858398 16.19977539 12.14233398 17.11352539 C9.64871828 15.90971091 7.46090316 14.65923817 5.14233398 13.11352539 C4.81233398 12.12352539 4.48233398 11.13352539 4.14233398 10.11352539 C3.48233398 9.78352539 2.82233398 9.45352539 2.14233398 9.11352539 C1.77022978 7.79048822 1.43603225 6.45614604 1.14233398 5.11352539 C0.81233398 4.78352539 0.48233398 4.45352539 0.14233398 4.11352539 C-0.18766602 3.45352539 -0.51766602 2.79352539 -0.85766602 2.11352539 C-1.51766602 1.78352539 -2.17766602 1.45352539 -2.85766602 1.11352539 C-1.85766602 0.11352539 -1.85766602 0.11352539 0 0 Z " fill="#EBECEE" transform="translate(668.857666015625,-0.113525390625)"/>
<path d="M0 0 C0 0.66 0 1.32 0 2 C0.804375 1.979375 1.60875 1.95875 2.4375 1.9375 C5 2 5 2 6 3 C6.04063832 4.66617115 6.042721 6.33388095 6 8 C3.36 8 0.72 8 -2 8 C-2 6.35 -2 4.7 -2 3 C-4.27173092 3.84566739 -4.27173092 3.84566739 -4.875 6.5 C-6 9 -6 9 -8 9.875 C-10 10 -10 10 -12 9 C-12 7.02 -12 5.04 -12 3 C-12.66 2.67 -13.32 2.34 -14 2 C-14.33 2.99 -14.66 3.98 -15 5 C-15.33 4.34 -15.66 3.68 -16 3 C-17.32 3 -18.64 3 -20 3 C-20 2.34 -20 1.68 -20 1 C-13.34362157 -0.23839599 -6.7528064 -0.09139136 0 0 Z " fill="#32B29A" transform="translate(252,293)"/>
<path d="M0 0 C1.32 0 2.64 0 4 0 C4.99 3.3 5.98 6.6 7 10 C8.9451 7.08235 9.45276317 5.37462715 10 2 C12.109375 3.515625 12.109375 3.515625 14 6 C13.62349018 8.85418732 13.13438534 11.06126525 12.25 13.75 C12.04117187 14.44738281 11.83234375 15.14476563 11.6171875 15.86328125 C11.09921219 17.58201751 10.55233927 19.29199704 10 21 C8.35 21 6.7 21 5 21 C4.35269196 18.43786446 3.70710712 15.87531515 3.0625 13.3125 C2.88009766 12.59126953 2.69769531 11.87003906 2.50976562 11.12695312 C1.58174093 7.43172752 0.70201539 3.74654531 0 0 Z " fill="#232B36" transform="translate(281,56)"/>
<path d="M0 0 C5.28 0 10.56 0 16 0 C16 1.32 16 2.64 16 4 C14.02 4 12.04 4 10 4 C10 9.61 10 15.22 10 21 C8.68 21 7.36 21 6 21 C6 15.39 6 9.78 6 4 C4.02 4 2.04 4 0 4 C0 2.68 0 1.36 0 0 Z " fill="#282427" transform="translate(440,56)"/>
<path d="M0 0 C0.969375 0.185625 1.93875 0.37125 2.9375 0.5625 C3.948125 0.706875 4.95875 0.85125 6 1 C6.33 0.67 6.66 0.34 7 0 C8.68608966 -0.07205511 10.37500659 -0.08386068 12.0625 -0.0625 C12.98160156 -0.05347656 13.90070312 -0.04445313 14.84765625 -0.03515625 C15.55792969 -0.02355469 16.26820313 -0.01195312 17 0 C17.33 0.99 17.66 1.98 18 3 C17.01 3.33 16.02 3.66 15 4 C15.99 4.33 16.98 4.66 18 5 C17.67 5.99 17.34 6.98 17 8 C11.555 8.495 11.555 8.495 6 9 C6.99 8.34 7.98 7.68 9 7 C8.01 6.34 7.02 5.68 6 5 C5.67 5.33 5.34 5.66 5 6 C3.33382885 6.04063832 1.66611905 6.042721 0 6 C0.185625 5.38125 0.37125 4.7625 0.5625 4.125 C1.23686176 1.95839822 1.23686176 1.95839822 0 0 Z " fill="#CDD7D8" transform="translate(525,295)"/>
<path d="M0 0 C0.66 0.66 1.32 1.32 2 2 C2.33 1.34 2.66 0.68 3 0 C3.99 0 4.98 0 6 0 C6.33 0.99 6.66 1.98 7 3 C7.99 2.01 8.98 1.02 10 0 C11.32 0.66 12.64 1.32 14 2 C14.33 1.34 14.66 0.68 15 0 C14.51421457 3.12290635 14.0013988 5.99580359 13 9 C12.34 9 11.68 9 11 9 C10.67 7.68 10.34 6.36 10 5 C9.34 6.32 8.68 7.64 8 9 C7.34 8.67 6.68 8.34 6 8 C6 7.01 6 6.02 6 5 C4.68 5 3.36 5 2 5 C1.67 6.32 1.34 7.64 1 9 C0.01 9 -0.98 9 -2 9 C-2 7.35 -2 5.7 -2 4 C-3.32 4.33 -4.64 4.66 -6 5 C-6 5.66 -6 6.32 -6 7 C-5.01 7.66 -4.02 8.32 -3 9 C-4.65 8.67 -6.3 8.34 -8 8 C-7.67 6.35 -7.34 4.7 -7 3 C-5.35 3 -3.7 3 -2 3 C-2 2.34 -2 1.68 -2 1 C-1.34 0.67 -0.68 0.34 0 0 Z " fill="#4F9DD2" transform="translate(362,292)"/>
<path d="M0 0 C0.66 0 1.32 0 2 0 C2 1.65 2 3.3 2 5 C2.99 5 3.98 5 5 5 C5 5.99 5 6.98 5 8 C4.01 8 3.02 8 2 8 C2 11.3 2 14.6 2 18 C2.99 18 3.98 18 5 18 C5 18.99 5 19.98 5 21 C3.00045254 21.04254356 0.99958364 21.04080783 -1 21 C-2 20 -2 20 -2.09765625 17.27734375 C-2.08605469 16.17519531 -2.07445312 15.07304688 -2.0625 13.9375 C-2.05347656 12.83277344 -2.04445313 11.72804688 -2.03515625 10.58984375 C-2.02355469 9.73519531 -2.01195312 8.88054687 -2 8 C-2.66 8 -3.32 8 -4 8 C-4 7.01 -4 6.02 -4 5 C-3.34 5 -2.68 5 -2 5 C-1.7834375 4.0409375 -1.7834375 4.0409375 -1.5625 3.0625 C-1 1 -1 1 0 0 Z " fill="#2D3238" transform="translate(329,56)"/>
<path d="M0 0 C0.66 0 1.32 0 2 0 C2.33 0.99 2.66 1.98 3 3 C3.66 3.33 4.32 3.66 5 4 C5 8 5 8 3.328125 9.76953125 C0.45360047 11.28878498 -1.06158165 11.1489816 -4.25 10.6875 C-5.14203125 10.56761719 -6.0340625 10.44773437 -6.953125 10.32421875 C-7.62859375 10.21722656 -8.3040625 10.11023438 -9 10 C-10.08174162 6.63458162 -9.92538169 5.70152678 -9 2 C-6.03 2 -3.06 2 0 2 C0 1.34 0 0.68 0 0 Z " fill="#509ACA" transform="translate(419,292)"/>
<path d="M0 0 C-0.99 0.66 -1.98 1.32 -3 2 C-2.01 2.66 -1.02 3.32 0 4 C-0.33 5.32 -0.66 6.64 -1 8 C-5.75 7.125 -5.75 7.125 -8 6 C-8.66 7.65 -9.32 9.3 -10 11 C-12.64 11 -15.28 11 -18 11 C-18 10.67 -18 10.34 -18 10 C-16.02 10 -14.04 10 -12 10 C-12 9.01 -12 8.02 -12 7 C-13.98 7 -15.96 7 -18 7 C-18 6.67 -18 6.34 -18 6 C-15.69 6 -13.38 6 -11 6 C-11.33 5.34 -11.66 4.68 -12 4 C-12.66 4 -13.32 4 -14 4 C-14 3.34 -14 2.68 -14 2 C-14.66 2 -15.32 2 -16 2 C-16 2.99 -16 3.98 -16 5 C-16.66 5 -17.32 5 -18 5 C-18.33 3.68 -18.66 2.36 -19 1 C-12.9453125 0.8046875 -12.9453125 0.8046875 -11 1 C-10.34 1.66 -9.68 2.32 -9 3 C-8.01 2.67 -7.02 2.34 -6 2 C-6 1.34 -6 0.68 -6 0 C-3.50907189 -1.24546405 -2.58919267 -0.7767578 0 0 Z " fill="#B5C3C4" transform="translate(489,293)"/>
<path d="M0 0 C3.96 0 7.92 0 12 0 C12.33 2.64 12.66 5.28 13 8 C11.35 8 9.7 8 8 8 C7.67 6.68 7.34 5.36 7 4 C6.67 5.65 6.34 7.3 6 9 C3.03 8.505 3.03 8.505 0 8 C-1.125 2.25 -1.125 2.25 0 0 Z " fill="#4596CC" transform="translate(340,293)"/>
<path d="M0 0 C3.3 0 6.6 0 10 0 C10 3.3 10 6.6 10 10 C6.7 10 3.4 10 0 10 C0 6.7 0 3.4 0 0 Z " fill="#9C9C9E" transform="translate(625,7)"/>
<path d="M0 0 C0.99 0.33 1.98 0.66 3 1 C2.34 2.32 1.68 3.64 1 5 C0.34 5 -0.32 5 -1 5 C-1 5.99 -1 6.98 -1 8 C-0.34 8 0.32 8 1 8 C1 11.96 1 15.92 1 20 C-0.65 20.66 -2.3 21.32 -4 22 C-4.04898437 20.94039062 -4.09796875 19.88078125 -4.1484375 18.7890625 C-4.22346709 17.40101503 -4.29901485 16.01299549 -4.375 14.625 C-4.4059375 13.92632812 -4.436875 13.22765625 -4.46875 12.5078125 C-4.59499498 8.29814173 -4.59499498 8.29814173 -7 5 C-5.90554162 4.13342884 -4.79902219 3.28207276 -3.6875 2.4375 C-3.07261719 1.96183594 -2.45773437 1.48617187 -1.82421875 0.99609375 C-1.22222656 0.66738281 -0.62023437 0.33867188 0 0 Z " fill="#E9EFEE" transform="translate(326,56)"/>
<path d="M0 0 C3.29714793 0.32971479 4.6226839 0.6226839 7 3 C7.36796448 5.87012296 7.37509409 7.40774618 5.8125 9.875 C4 11 4 11 1.4375 10.8125 C-1 10 -1 10 -3 8 C-2.54545455 2.54545455 -2.54545455 2.54545455 0 0 Z " fill="#A8A9AA" transform="translate(301,373)"/>
<path d="M0 0 C1.65 0 3.3 0 5 0 C5 0.66 5 1.32 5 2 C5.928125 2 6.85625 2 7.8125 2 C9.875 2 11.9375 2 14 2 C14 3.98 14 5.96 14 8 C9.38 8 4.76 8 0 8 C-1 2 -1 2 0 0 Z " fill="#AAADAC" transform="translate(257,244)"/>
<path d="M0 0 C0.33 0.66 0.66 1.32 1 2 C1.99 2 2.98 2 4 2 C4.33 1.34 4.66 0.68 5 0 C5.33 1.32 5.66 2.64 6 4 C6.99 4 7.98 4 9 4 C9 5.32 9 6.64 9 8 C5.68929162 9.00109515 2.69915231 9.10356134 -0.75 9.0625 C-1.73484375 9.05347656 -2.7196875 9.04445313 -3.734375 9.03515625 C-4.48203125 9.02355469 -5.2296875 9.01195312 -6 9 C-5.814375 8.38125 -5.62875 7.7625 -5.4375 7.125 C-4.76313824 4.95839822 -4.76313824 4.95839822 -6 3 C-5.195625 2.87625 -4.39125 2.7525 -3.5625 2.625 C-2.716875 2.41875 -1.87125 2.2125 -1 2 C-0.67 1.34 -0.34 0.68 0 0 Z " fill="#E8F1E9" transform="translate(354,374)"/>
<path d="M0 0 C3.3 0.33 6.6 0.66 10 1 C10 3.64 10 6.28 10 9 C8.52093108 9.02689216 7.04172517 9.04634621 5.5625 9.0625 C4.32693359 9.07990234 4.32693359 9.07990234 3.06640625 9.09765625 C1 9 1 9 0 8 C-0.14115161 5.32941149 -0.04247107 2.67567762 0 0 Z " fill="#667987" transform="translate(316,129)"/>
<path d="M0 0 C1.32 0 2.64 0 4 0 C4 6.93 4 13.86 4 21 C2.68 21 1.36 21 0 21 C0 14.07 0 7.14 0 0 Z " fill="#312634" transform="translate(494,56)"/>
<path d="M0 0 C1.32 0 2.64 0 4 0 C4 1.32 4 2.64 4 4 C5.32 4 6.64 4 8 4 C8 5.32 8 6.64 8 8 C6.68 8 5.36 8 4 8 C4 9.32 4 10.64 4 12 C2.68 12 1.36 12 0 12 C0 10.68 0 9.36 0 8 C-1.32 8 -2.64 8 -4 8 C-4 6.68 -4 5.36 -4 4 C-2.68 4 -1.36 4 0 4 C0 2.68 0 1.36 0 0 Z " fill="#3D3C94" transform="translate(118,373)"/>
<path d="M0 0 C2.97 0 5.94 0 9 0 C9 0.99 9 1.98 9 3 C7.68 3.33 6.36 3.66 5 4 C4.67 7.96 4.34 11.92 4 16 C2.68 16 1.36 16 0 16 C0 10.72 0 5.44 0 0 Z " fill="#22324C" transform="translate(352,61)"/>
<path d="M0 0 C2.97 0 5.94 0 9 0 C9 0.99 9 1.98 9 3 C7.68 3.33 6.36 3.66 5 4 C4.67 7.96 4.34 11.92 4 16 C2.68 16 1.36 16 0 16 C0 10.72 0 5.44 0 0 Z " fill="#2C2D30" transform="translate(405,61)"/>
<path d="M0 0 C0.66 0 1.32 0 2 0 C2.33 4.62 2.66 9.24 3 14 C1.35 13.67 -0.3 13.34 -2 13 C-3.8253125 13.2784375 -3.8253125 13.2784375 -5.6875 13.5625 C-7.3271875 13.7790625 -7.3271875 13.7790625 -9 14 C-9.66 13.34 -10.32 12.68 -11 12 C-10.625 9.375 -10.625 9.375 -10 7 C-9.01 7 -8.02 7 -7 7 C-6.67 7.99 -6.34 8.98 -6 10 C-5.01 10 -4.02 10 -3 10 C-2.67 9.34 -2.34 8.68 -2 8 C-1.34 8 -0.68 8 0 8 C0 5.36 0 2.72 0 0 Z " fill="#282B36" transform="translate(320,63)"/>
<path d="M0 0 C2.61580479 0.3269756 4.64078137 0.82039068 7 2 C7.22732116 4.80362763 7.34081872 6.46186517 5.8125 8.875 C4 10 4 10 1.4375 9.8125 C-1 9 -1 9 -3 7 C-2.67028521 3.70285207 -2.3773161 2.3773161 0 0 Z " fill="#C3BFBC" transform="translate(328,376)"/>
<path d="M0 0 C0.33 0 0.66 0 1 0 C1 3.3 1 6.6 1 10 C-0.32 9.67 -1.64 9.34 -3 9 C-7.07603465 8.72932582 -11.089149 8.696383 -15 10 C-15 8.02 -15 6.04 -15 4 C-12.24517432 3.92129069 -10.14059798 3.95430566 -7.5 4.8125 C-6.675 4.874375 -5.85 4.93625 -5 5 C-2.22877725 2.64573501 -2.22877725 2.64573501 0 0 Z " fill="#F0F8F8" transform="translate(222,66)"/>
<path d="M0 0 C2.69082872 0.17635452 5.32851446 0.61835921 8 1 C8.33 1.99 8.66 2.98 9 4 C9.99 4.33 10.98 4.66 12 5 C12 5.66 12 6.32 12 7 C11.01 7.33 10.02 7.66 9 8 C9.99 8.66 10.98 9.32 12 10 C8.37 10 4.74 10 1 10 C1.99 9.67 2.98 9.34 4 9 C4 8.01 4 7.02 4 6 C3.360625 5.731875 2.72125 5.46375 2.0625 5.1875 C0 4 0 4 -1 1 C-0.67 0.67 -0.34 0.34 0 0 Z " fill="#70808D" transform="translate(330,125)"/>
<path d="M0 0 C1.65 0 3.3 0 5 0 C3.68 0.33 2.36 0.66 1 1 C1 1.99 1 2.98 1 4 C1.639375 3.835 2.27875 3.67 2.9375 3.5 C6.97586652 2.84067485 10.91807258 2.91996221 15 3 C15 4.98 15 6.96 15 9 C14.67 9 14.34 9 14 9 C14 7.35 14 5.7 14 4 C11.48916886 5.25541557 11.12874554 6.50063488 10 9 C10 7.35 10 5.7 10 4 C7.72826908 4.84566739 7.72826908 4.84566739 7.125 7.5 C6 10 6 10 4 10.9375 C3.01 10.9684375 3.01 10.9684375 2 11 C0 9 0 9 -0.1953125 6.8359375 C-0.17210937 6.02382813 -0.14890625 5.21171875 -0.125 4.375 C-0.10695312 3.55773437 -0.08890625 2.74046875 -0.0703125 1.8984375 C-0.04710937 1.27195312 -0.02390625 0.64546875 0 0 Z " fill="#7AE2D5" transform="translate(171,292)"/>
<path d="M0 0 C2.3125 -0.25 2.3125 -0.25 5 0 C6.8125 2 6.8125 2 8 4 C8.66 3.67 9.32 3.34 10 3 C10 4.98 10 6.96 10 9 C6.7 9 3.4 9 0 9 C0 6.03 0 3.06 0 0 Z " fill="#87C8E4" transform="translate(328,292)"/>
<path d="M0 0 C4.55555556 0.55555556 4.55555556 0.55555556 6 2 C6.1875 4.9375 6.1875 4.9375 6 8 C5.34 8.66 4.68 9.32 4 10 C-0.55555556 9.44444444 -0.55555556 9.44444444 -2 8 C-2.1875 5.0625 -2.1875 5.0625 -2 2 C-1.34 1.34 -0.68 0.68 0 0 Z " fill="#F2F3F5" transform="translate(463,64)"/>
<path d="M0 0 C0.66 0.33 1.32 0.66 2 1 C2.144375 1.886875 2.28875 2.77375 2.4375 3.6875 C3.04409384 7.25966371 4.26891595 9.83889 6 13 C4.35 13 2.7 13 1 13 C0.01 11.02 -0.98 9.04 -2 7 C-2.33 7 -2.66 7 -3 7 C-3.33 8.98 -3.66 10.96 -4 13 C-4.99 13 -5.98 13 -7 13 C-6.34 10.03 -5.68 7.06 -5 4 C-3.68 3.67 -2.36 3.34 -1 3 C-0.67 2.01 -0.34 1.02 0 0 Z " fill="#222532" transform="translate(424,64)"/>
<path d="M0 0 C4.55555556 0.55555556 4.55555556 0.55555556 6 2 C6.1875 4.9375 6.1875 4.9375 6 8 C5.34 8.66 4.68 9.32 4 10 C-0.55555556 9.44444444 -0.55555556 9.44444444 -2 8 C-2.1875 5.0625 -2.1875 5.0625 -2 2 C-1.34 1.34 -0.68 0.68 0 0 Z " fill="#ECEEEC" transform="translate(481,64)"/>
<path d="M0 0 C0.66 0 1.32 0 2 0 C5.06476484 5.27139553 5.06476484 5.27139553 4.75 8.8125 C4 11 4 11 3 12 C1.33382885 12.04063832 -0.33388095 12.042721 -2 12 C-3.01911045 8.10885099 -3.16782969 6.39403493 -1.5625 2.625 C-1.046875 1.75875 -0.53125 0.8925 0 0 Z " fill="#3F92E2" transform="translate(14,6)"/>
<path d="M0 0 C0.33 0 0.66 0 1 0 C1 2.97 1 5.94 1 9 C-2.3 9 -5.6 9 -9 9 C-9.38218767 7.34385343 -9.71395102 5.67542976 -10 4 C-9 3 -9 3 -6.93359375 2.90234375 C-5.69802734 2.91974609 -5.69802734 2.91974609 -4.4375 2.9375 C-3.61121094 2.94652344 -2.78492188 2.95554688 -1.93359375 2.96484375 C-1.29550781 2.97644531 -0.65742188 2.98804688 0 3 C0 2.01 0 1.02 0 0 Z " fill="#A6A1A0" transform="translate(387,165)"/>
<path d="M0 0 C0.99 0.33 1.98 0.66 3 1 C2.34 1 1.68 1 1 1 C1.33 2.65 1.66 4.3 2 6 C2.99 5.67 3.98 5.34 5 5 C9.95337583 4.76032052 13.48141403 4.74070702 18 7 C18 7.66 18 8.32 18 9 C12.06 9 6.12 9 0 9 C0 6.03 0 3.06 0 0 Z " fill="#3C4448" transform="translate(206,69)"/>
<path d="M0 0 C1.65 0.33 3.3 0.66 5 1 C5 1.66 5 2.32 5 3 C5.969375 2.979375 6.93875 2.95875 7.9375 2.9375 C11 3 11 3 12 4 C12.04092937 6.33297433 12.04241723 8.66705225 12 11 C12.66 11 13.32 11 14 11 C14 11.66 14 12.32 14 13 C8.39 12.67 2.78 12.34 -3 12 C-1.68 11.67 -0.36 11.34 1 11 C1 9.35 1 7.7 1 6 C1.33 6 1.66 6 2 6 C2 7.65 2 9.3 2 11 C3.98 10.67 5.96 10.34 8 10 C7.67 9.34 7.34 8.68 7 8 C8.32 8 9.64 8 11 8 C10.67 7.34 10.34 6.68 10 6 C8.88625 5.896875 7.7725 5.79375 6.625 5.6875 C3 5 3 5 1.0625 2.4375 C0.711875 1.633125 0.36125 0.82875 0 0 Z " fill="#4991C7" transform="translate(382,290)"/>
<path d="M0 0 C1.65 0 3.3 0 5 0 C5 0.66 5 1.32 5 2 C7.97 2.495 7.97 2.495 11 3 C11 4.98 11 6.96 11 9 C10.67 9 10.34 9 10 9 C10 7.35 10 5.7 10 4 C7.48916886 5.25541557 7.12874554 6.50063488 6 9 C4.02 9 2.04 9 0 9 C0 6.03 0 3.06 0 0 Z " fill="#8D8D93" transform="translate(200,243)"/>
<path d="M0 0 C0.969375 0.185625 1.93875 0.37125 2.9375 0.5625 C3.948125 0.706875 4.95875 0.85125 6 1 C6.33 0.67 6.66 0.34 7 0 C8.66617115 -0.04063832 10.33388095 -0.042721 12 0 C11.67 2.64 11.34 5.28 11 8 C10.67 7.34 10.34 6.68 10 6 C9.0925 6.185625 8.185 6.37125 7.25 6.5625 C4.31685676 6.95734621 2.7355343 6.94691572 0 6 C0.185625 5.38125 0.37125 4.7625 0.5625 4.125 C1.23686176 1.95839822 1.23686176 1.95839822 0 0 Z " fill="#7C7D7F" transform="translate(66,11)"/>
<path d="M0 0 C1.45792884 -0.05399736 2.91642712 -0.09279177 4.375 -0.125 C5.18710937 -0.14820313 5.99921875 -0.17140625 6.8359375 -0.1953125 C9 0 9 0 11 2 C11 2.99 11 3.98 11 5 C11.66 4.67 12.32 4.34 13 4 C12.67 2.68 12.34 1.36 12 0 C12.99 0.33 13.98 0.66 15 1 C14.67 1.33 14.34 1.66 14 2 C14.66 2.33 15.32 2.66 16 3 C15.67 3.99 15.34 4.98 15 6 C10.71 6 6.42 6 2 6 C2 4.35 2 2.7 2 1 C1.34 0.67 0.68 0.34 0 0 Z " fill="#77787A" transform="translate(40,11)"/>
<path d="M0 0 C-0.33 2.97 -0.66 5.94 -1 9 C-2.9914056 9.38133299 -4.99279077 9.71325582 -7 10 C-8 9 -8 9 -8.25 6.125 C-8 3 -8 3 -6.8125 1.125 C-4.43963721 -0.34781139 -2.74086056 -0.22223194 0 0 Z " fill="#828284" transform="translate(37,8)"/>
<path d="M0 0 C1.98 0 3.96 0 6 0 C6 1.32 6 2.64 6 4 C4.02 4 2.04 4 0 4 C0 9.61 0 15.22 0 21 C-0.66 20.67 -1.32 20.34 -2 20 C-2 14.39 -2 8.78 -2 3 C-1.34 3 -0.68 3 0 3 C0 2.01 0 1.02 0 0 Z " fill="#24334B" transform="translate(450,56)"/>
<path d="M0 0 C2.97 0 5.94 0 9 0 C9.33 0.99 9.66 1.98 10 3 C10.66 2.67 11.32 2.34 12 2 C11.67 1.34 11.34 0.68 11 0 C12.65 0.33 14.3 0.66 16 1 C16 2.65 16 4.3 16 6 C13.36 6 10.72 6 8 6 C8 4.35 8 2.7 8 1 C5.48916886 2.25541557 5.12874554 3.50063488 4 6 C4 4.35 4 2.7 4 1 C1.48916886 2.25541557 1.12874554 3.50063488 0 6 C0 4.02 0 2.04 0 0 Z " fill="#94ECDD" transform="translate(242,295)"/>
<path d="M0 0 C0.99 1.485 0.99 1.485 2 3 C2.99 3 3.98 3 5 3 C5 3.66 5 4.32 5 5 C5.99 4.34 6.98 3.68 8 3 C10.1875 3.375 10.1875 3.375 12 4 C12 4.66 12 5.32 12 6 C11.01 6.33 10.02 6.66 9 7 C9.99 7.66 10.98 8.32 12 9 C8 9 4 9 0 9 C0 6.03 0 3.06 0 0 Z " fill="#929298" transform="translate(280,243)"/>
<path d="M0 0 C0.66 0 1.32 0 2 0 C2.66 0.99 3.32 1.98 4 3 C5.97747122 3.36297936 5.97747122 3.36297936 8.125 3.1875 C9.40375 3.125625 10.6825 3.06375 12 3 C12 4.98 12 6.96 12 9 C11.67 9 11.34 9 11 9 C11 7.35 11 5.7 11 4 C10.01 4.495 10.01 4.495 9 5 C8.34786708 7.02463255 8.34786708 7.02463255 8 9 C5.36 9 2.72 9 0 9 C0 6.03 0 3.06 0 0 Z " fill="#CDD8D9" transform="translate(511,292)"/>
<path d="M0 0 C1.2380014 3.57644848 0.74926071 6.33694766 0 10 C0.69867188 9.97679688 1.39734375 9.95359375 2.1171875 9.9296875 C3.02726562 9.91164063 3.93734375 9.89359375 4.875 9.875 C5.77992188 9.85179688 6.68484375 9.82859375 7.6171875 9.8046875 C10 10 10 10 12 12 C8.5970516 14.09412209 5.96378615 14.57805215 2 14 C-1.24278198 11.18389986 -1.93881217 9.60168034 -2.375 5.3125 C-2 2 -2 2 0 0 Z " fill="#372D25" transform="translate(337,63)"/>
<path d="M0 0 C4.29 0.33 8.58 0.66 13 1 C13 2.98 13 4.96 13 7 C12.67 7 12.34 7 12 7 C12 5.35 12 3.7 12 2 C9.48916886 3.25541557 9.12874554 4.50063488 8 7 C8 5.35 8 3.7 8 2 C5.48916886 3.25541557 5.12874554 4.50063488 4 7 C2.68 7 1.36 7 0 7 C0 4.69 0 2.38 0 0 Z " fill="#93D2EC" transform="translate(394,294)"/>
<path d="M0 0 C1.32 0 2.64 0 4 0 C2.68882339 7.11120489 0.98279484 14.04699943 -1 21 C-1.33 21 -1.66 21 -2 21 C-1.91621094 20.32453125 -1.83242188 19.6490625 -1.74609375 18.953125 C-1.64425781 18.06109375 -1.54242188 17.1690625 -1.4375 16.25 C-1.33308594 15.36828125 -1.22867187 14.4865625 -1.12109375 13.578125 C-0.87731574 11.05732948 -0.87731574 11.05732948 -1.53125 8.90625 C-2.31259558 5.72877798 -0.99108131 3.03154284 0 0 Z " fill="#2A2E35" transform="translate(304,56)"/>
<path d="M0 0 C0.66 0 1.32 0 2 0 C2.33 0.99 2.66 1.98 3 3 C3.66 2.01 4.32 1.02 5 0 C5.66 0 6.32 0 7 0 C7.33 0.99 7.66 1.98 8 3 C8.99 2.01 9.98 1.02 11 0 C10.34 2.97 9.68 5.94 9 9 C7.02 9 5.04 9 3 9 C2.01 6.03 1.02 3.06 0 0 Z " fill="#8EEEDF" transform="translate(210,292)"/>
<path d="M0 0 C0.66 0 1.32 0 2 0 C2 0.99 2 1.98 2 3 C2.66 3 3.32 3 4 3 C4 2.01 4 1.02 4 0 C4.66 0 5.32 0 6 0 C6 0.66 6 1.32 6 2 C6.99 1.67 7.98 1.34 9 1 C8.67 3.31 8.34 5.62 8 8 C5.6739143 8.38063221 3.33944736 8.71269945 1 9 C0 8 0 8 -0.09765625 6.15234375 C-0.06510417 4.1015625 -0.03255208 2.05078125 0 0 Z " fill="#A8B4B4" transform="translate(469,295)"/>
<path d="M0 0 C1.66611905 -0.042721 3.33382885 -0.04063832 5 0 C6 1 6 1 6.0625 4.5625 C6.041875 5.696875 6.02125 6.83125 6 8 C4.02 8.33 2.04 8.66 0 9 C0 6.03 0 3.06 0 0 Z " fill="#99989C" transform="translate(340,374)"/>
<path d="M0 0 C0.66 0 1.32 0 2 0 C2.33 0.99 2.66 1.98 3 3 C3.99 2.01 4.98 1.02 6 0 C7.32 0.66 8.64 1.32 10 2 C10.33 1.34 10.66 0.68 11 0 C10.51421457 3.12290635 10.0013988 5.99580359 9 9 C8.34 9 7.68 9 7 9 C6.67 7.68 6.34 6.36 6 5 C5.34 6.32 4.68 7.64 4 9 C2 8 2 8 1.3671875 6.15234375 C1.20476562 5.42144531 1.04234375 4.69054687 0.875 3.9375 C0.70742188 3.20402344 0.53984375 2.47054688 0.3671875 1.71484375 C0.24601562 1.14894531 0.12484375 0.58304687 0 0 Z " fill="#A1E0F9" transform="translate(366,292)"/>
<path d="M0 0 C2.875 -0.125 2.875 -0.125 6 0 C6.66 0.66 7.32 1.32 8 2 C11.09926819 1.67801034 11.09926819 1.67801034 14 1 C15.61949011 3.57213134 16.04408751 4.67669159 15.625 7.75 C15.41875 8.4925 15.2125 9.235 15 10 C14.67 10 14.34 10 14 10 C14 8.02 14 6.04 14 4 C9.38 4.33 4.76 4.66 0 5 C0 3.35 0 1.7 0 0 Z " fill="#33B89E" transform="translate(172,291)"/>
<path d="M0 0 C0.99 0.33 1.98 0.66 3 1 C2.50886719 1.39832031 2.01773437 1.79664063 1.51171875 2.20703125 C-0.43183425 4.5121755 -0.316536 5.7196719 -0.1875 8.6875 C-0.16042969 9.49574219 -0.13335937 10.30398437 -0.10546875 11.13671875 C-0.07066406 11.75160156 -0.03585937 12.36648437 0 13 C-1.65 13 -3.3 13 -5 13 C-5 9.7 -5 6.4 -5 3 C-3.68 3 -2.36 3 -1 3 C-0.67 2.01 -0.34 1.02 0 0 Z " fill="#F2F5EC" transform="translate(336,61)"/>
<path d="M0 0 C1.875 0.0625 1.875 0.0625 4 1 C7 6.03571429 7 6.03571429 7 9 C3.85262818 8.30058404 0.97411124 7.23921302 -2 6 C-1.125 1.125 -1.125 1.125 0 0 Z " fill="#DBF4FD" transform="translate(316,294)"/>
<path d="M0 0 C0.7425 0.309375 1.485 0.61875 2.25 0.9375 C4.50692176 1.8094925 6.6450153 2.47667007 9 3 C9 3.66 9 4.32 9 5 C8.01 5.33 7.02 5.66 6 6 C6.99 6.66 7.98 7.32 9 8 C6.03 8 3.06 8 0 8 C-1.125 2.25 -1.125 2.25 0 0 Z " fill="#6FD9C5" transform="translate(228,293)"/>
<path d="M0 0 C0.66 0 1.32 0 2 0 C2.33 0.99 2.66 1.98 3 3 C3.66 3.33 4.32 3.66 5 4 C5 5.32 5 6.64 5 8 C1.8035914 9.06546953 -0.65747276 9.07427838 -4 9 C-4 7.02 -4 5.04 -4 3 C-2.68 3 -1.36 3 0 3 C0 2.01 0 1.02 0 0 Z " fill="#8FF0E2" transform="translate(263,292)"/>
<path d="M0 0 C2.64 0 5.28 0 8 0 C7.01 1.485 7.01 1.485 6 3 C6.66 3 7.32 3 8 3 C8 4.98 8 6.96 8 9 C7.34 9 6.68 9 6 9 C5.34 8.01 4.68 7.02 4 6 C3.01 5.67 2.02 5.34 1 5 C0.67 6.32 0.34 7.64 0 9 C0 6.03 0 3.06 0 0 Z " fill="#8E9DAB" transform="translate(365,126)"/>
<path d="M0 0 C0.99 0.495 0.99 0.495 2 1 C2.1954384 3.89549503 2.38161395 6.79108998 2.5625 9.6875 C2.61857422 10.50412109 2.67464844 11.32074219 2.73242188 12.16210938 C2.98341571 16.29514123 3.11127743 19.95824282 2 24 C1.34 24 0.68 24 0 24 C0 16.08 0 8.16 0 0 Z " fill="#E3F7FC" transform="translate(498,56)"/>
<path d="M0 0 C0.33 0.66 0.66 1.32 1 2 C3.31 2 5.62 2 8 2 C8.33 2.99 8.66 3.98 9 5 C8.01 5.33 7.02 5.66 6 6 C6.99 6.66 7.98 7.32 9 8 C6.03 8 3.06 8 0 8 C-1.125 2.25 -1.125 2.25 0 0 Z " fill="#89C9EA" transform="translate(384,293)"/>
<path d="M0 0 C0.66 0 1.32 0 2 0 C2 0.99 2 1.98 2 3 C3.65 3 5.3 3 7 3 C7.33 3.99 7.66 4.98 8 6 C7.01 6.33 6.02 6.66 5 7 C5.99 7.66 6.98 8.32 8 9 C2.25 10.125 2.25 10.125 0 9 C0 6.03 0 3.06 0 0 Z " fill="#7C8E93" transform="translate(374,126)"/>
<path d="M0 0 C1.98 0 3.96 0 6 0 C6.33 0.99 6.66 1.98 7 3 C6.01 3.33 5.02 3.66 4 4 C4.99 4.33 5.98 4.66 7 5 C6.67 5.99 6.34 6.98 6 8 C4.02 8.33 2.04 8.66 0 9 C0 6.03 0 3.06 0 0 Z " fill="#A2ABAE" transform="translate(536,295)"/>
<path d="M0 0 C0.33 0.66 0.66 1.32 1 2 C2.32 2 3.64 2 5 2 C6.34164079 2.2981424 7.67851173 2.62243192 9 3 C9 3.66 9 4.32 9 5 C8.01 5.33 7.02 5.66 6 6 C6.99 6.66 7.98 7.32 9 8 C6.03 8 3.06 8 0 8 C-1.125 2.25 -1.125 2.25 0 0 Z " fill="#949293" transform="translate(213,244)"/>
<path d="M0 0 C0.33 0.66 0.66 1.32 1 2 C1.66 2.33 2.32 2.66 3 3 C2.34 3 1.68 3 1 3 C1 4.32 1 5.64 1 7 C1.66 7.33 2.32 7.66 3 8 C0.36 8 -2.28 8 -5 8 C-5.38218767 6.34385343 -5.71395102 4.67542976 -6 3 C-5 2 -5 2 -2.4375 1.9375 C-1.2309375 1.9684375 -1.2309375 1.9684375 0 2 C0 1.34 0 0.68 0 0 Z " fill="#939292" transform="translate(373,166)"/>
<path d="M0 0 C0.66 0.33 1.32 0.66 2 1 C1.34 4.3 0.68 7.6 0 11 C-1.32 10.67 -2.64 10.34 -4 10 C-4.33 7.03 -4.66 4.06 -5 1 C-3.02 1.99 -3.02 1.99 -1 3 C-0.67 2.01 -0.34 1.02 0 0 Z " fill="#2C2727" transform="translate(302,66)"/>
<path d="M0 0 C1.98 0.495 1.98 0.495 4 1 C4 4.96 4 8.92 4 13 C3.01 11.68 2.02 10.36 1 9 C0.34 10.32 -0.32 11.64 -1 13 C-1.02686553 11.02090602 -1.04633375 9.04171029 -1.0625 7.0625 C-1.07410156 5.96035156 -1.08570313 4.85820313 -1.09765625 3.72265625 C-1 1 -1 1 0 0 Z " fill="#EDEDE9" transform="translate(377,64)"/>
<path d="M0 0 C6.15234375 -0.09765625 6.15234375 -0.09765625 8 0 C9 1 9 1 9.09765625 3.06640625 C9.08605469 3.89011719 9.07445312 4.71382813 9.0625 5.5625 C9.05347656 6.38878906 9.04445313 7.21507812 9.03515625 8.06640625 C9.02355469 8.70449219 9.01195312 9.34257812 9 10 C6.36 10 3.72 10 1 10 C1 9.67 1 9.34 1 9 C2.98 9 4.96 9 7 9 C7 8.01 7 7.02 7 6 C5.02 6 3.04 6 1 6 C1 5.67 1 5.34 1 5 C3.31 5 5.62 5 8 5 C7.67 4.34 7.34 3.68 7 3 C6.34 3 5.68 3 5 3 C5 2.34 5 1.68 5 1 C4.34 1 3.68 1 3 1 C3 1.99 3 2.98 3 4 C2.34 4 1.68 4 1 4 C0.67 2.68 0.34 1.36 0 0 Z " fill="#DAE3E4" transform="translate(470,294)"/>
<path d="M0 0 C0.33 0.66 0.66 1.32 1 2 C1.66 2.33 2.32 2.66 3 3 C2.34 3 1.68 3 1 3 C1 4.32 1 5.64 1 7 C1.66 7.33 2.32 7.66 3 8 C0.36 8 -2.28 8 -5 8 C-5.38218767 6.34385343 -5.71395102 4.67542976 -6 3 C-5 2 -5 2 -2.4375 1.9375 C-1.2309375 1.9684375 -1.2309375 1.9684375 0 2 C0 1.34 0 0.68 0 0 Z " fill="#929FAA" transform="translate(358,127)"/>
<path d="M0 0 C2.64 0 5.28 0 8 0 C8.33 0.99 8.66 1.98 9 3 C9.99 3 10.98 3 12 3 C12 4.98 12 6.96 12 9 C10.35 9 8.7 9 7 9 C7 6.36 7 3.72 7 1 C6.01 1 5.02 1 4 1 C4 3.64 4 6.28 4 9 C3.67 9 3.34 9 3 9 C3 6.36 3 3.72 3 1 C2.01 0.67 1.02 0.34 0 0 Z " fill="#463B37" transform="translate(366,374)"/>
<path d="M0 0 C2.64 0 5.28 0 8 0 C8.33 0.99 8.66 1.98 9 3 C8.01 3.33 7.02 3.66 6 4 C6.99 4.66 7.98 5.32 9 6 C6.03 6 3.06 6 0 6 C0 4.02 0 2.04 0 0 Z " fill="#A8A5A5" transform="translate(293,246)"/>
<path d="M0 0 C0.99 0.33 1.98 0.66 3 1 C3 3.97 3 6.94 3 10 C1.35 10 -0.3 10 -2 10 C-2 8.02 -2 6.04 -2 4 C-1.34 4 -0.68 4 0 4 C0 3.34 0 2.68 0 2 C-0.66 1.67 -1.32 1.34 -2 1 C-1.34 0.67 -0.68 0.34 0 0 Z " fill="#A2A09F" transform="translate(334,164)"/>
<path d="M0 0 C0.33 0 0.66 0 1 0 C1 5.28 1 10.56 1 16 C-1.31 16 -3.62 16 -6 16 C-5.01 15.34 -4.02 14.68 -3 14 C-3.33 13.34 -3.66 12.68 -4 12 C-3.34 12 -2.68 12 -2 12 C-1.93941406 11.21753906 -1.87882812 10.43507813 -1.81640625 9.62890625 C-1.73261719 8.61699219 -1.64882813 7.60507813 -1.5625 6.5625 C-1.48128906 5.55316406 -1.40007812 4.54382813 -1.31640625 3.50390625 C-1 1 -1 1 0 0 Z " fill="#F1EDDB" transform="translate(351,61)"/>
<path d="M0 0 C0.66 0.33 1.32 0.66 2 1 C2 2.65 2 4.3 2 6 C0.02 6.66 -1.96 7.32 -4 8 C-5 7 -5 7 -5.0625 4.4375 C-5.041875 3.633125 -5.02125 2.82875 -5 2 C-2.625 0.9375 -2.625 0.9375 0 0 Z " fill="#35373D" transform="translate(395,67)"/>
<path d="M0 0 C5.28 0 10.56 0 16 0 C16 0.99 16 1.98 16 3 C14.35 3.33 12.7 3.66 11 4 C10.67 3.34 10.34 2.68 10 2 C8.02 2 6.04 2 4 2 C4 2.66 4 3.32 4 4 C2.68 3.67 1.36 3.34 0 3 C0 2.01 0 1.02 0 0 Z " fill="#EFF1EE" transform="translate(207,60)"/>
<path d="M0 0 C1.11761719 0.02707031 1.11761719 0.02707031 2.2578125 0.0546875 C4.08909701 0.10164351 5.91971649 0.17338348 7.75 0.25 C7.75 0.58 7.75 0.91 7.75 1.25 C2.8 1.25 -2.15 1.25 -7.25 1.25 C-8.8231146 5.1827865 -9.67732628 8.14583836 -10.25 12.25 C-10.91 11.92 -11.57 11.59 -12.25 11.25 C-12.73345324 4.96510791 -12.73345324 4.96510791 -10.75 2.03125 C-7.26219368 -0.45381201 -4.10729312 -0.18867424 0 0 Z " fill="#D5D5D6" transform="translate(308.25,370.75)"/>
<path d="M0 0 C0.66 0 1.32 0 2 0 C2 6.6 2 13.2 2 20 C1.34 20 0.68 20 0 20 C-0.95946595 15.38034912 -0.96102244 11.31870875 -0.5625 6.625 C-0.46066406 5.37976563 -0.35882813 4.13453125 -0.25390625 2.8515625 C-0.17011719 1.91054688 -0.08632813 0.96953125 0 0 Z " fill="#F7EFDA" transform="translate(444,60)"/>
<path d="M0 0 C-2.88087546 2.40072955 -5.56404834 4.47291037 -9 6 C-8.67 7.98 -8.34 9.96 -8 12 C-8.99 11.67 -9.98 11.34 -11 11 C-11.46707789 6.98313013 -11.32150834 5.43498188 -8.875 2.125 C-5.56501812 -0.32150834 -4.01686987 -0.46707789 0 0 Z " fill="#313034" transform="translate(486,61)"/>
<path d="M0 0 C0.66 1.32 1.32 2.64 2 4 C2.99 4 3.98 4 5 4 C5 5.32 5 6.64 5 8 C1.92677456 8.91058531 -0.80097361 9.08886184 -4 9 C-4 7.02 -4 5.04 -4 3 C-3.01 3 -2.02 3 -1 3 C-0.67 2.01 -0.34 1.02 0 0 Z " fill="#50525B" transform="translate(358,374)"/>
<path d="M0 0 C2.64 0.33 5.28 0.66 8 1 C7.34 2.98 6.68 4.96 6 7 C3.69 7 1.38 7 -1 7 C-0.7525 6.1028125 -0.7525 6.1028125 -0.5 5.1875 C0.1114124 2.88655664 0.1114124 2.88655664 0 0 Z " fill="#98D6EB" transform="translate(410,294)"/>
<path d="M0 0 C0.66 0 1.32 0 2 0 C2 1.65 2 3.3 2 5 C2.66 5 3.32 5 4 5 C4 3.35 4 1.7 4 0 C5.98 0 7.96 0 10 0 C9.34 1.98 8.68 3.96 8 6 C5.66705225 6.04241723 3.33297433 6.04092937 1 6 C0 5 0 5 -0.0625 2.4375 C-0.041875 1.633125 -0.02125 0.82875 0 0 Z " fill="#7C8281" transform="translate(243,246)"/>
<path d="M0 0 C0.99 0.33 1.98 0.66 3 1 C5.15634036 1 6.92446352 0.5534764 9 0 C9.33 0.99 9.66 1.98 10 3 C9.01 3.33 8.02 3.66 7 4 C7.99 4.66 8.98 5.32 10 6 C6.7 6 3.4 6 0 6 C0 4 0 2 0 0 Z " fill="#82817D" transform="translate(347,168)"/>
<path d="M0 0 C0.66 0 1.32 0 2 0 C2.125 6.75 2.125 6.75 1 9 C-1.64860427 9.59355614 -4.29197322 9.74209269 -7 10 C-7.66 8.68 -8.32 7.36 -9 6 C-5.7 6 -2.4 6 1 6 C0.67 4.02 0.34 2.04 0 0 Z " fill="#F2FAFC" transform="translate(348,64)"/>
<path d="M0 0 C5.94 0 11.88 0 18 0 C18 0.33 18 0.66 18 1 C12.39 1 6.78 1 1 1 C1.33 1.99 1.66 2.98 2 4 C4.50447516 5.21869929 4.50447516 5.21869929 7 6 C4.64046906 8.35953094 3.22104383 8.49141413 0 9 C0 6.03 0 3.06 0 0 Z " fill="#464A4E" transform="translate(206,59)"/>
<path d="M0 0 C0.66 0.33 1.32 0.66 2 1 C2.59355614 3.64860427 2.74209269 6.29197322 3 9 C1.35 9 -0.3 9 -2 9 C-2.6875 7.3125 -2.6875 7.3125 -3 5 C-1.5625 2.25 -1.5625 2.25 0 0 Z " fill="#BCF8F3" transform="translate(161,294)"/>
<path d="M0 0 C1.98 0 3.96 0 6 0 C6 2.31 6 4.62 6 7 C6.66 7.33 7.32 7.66 8 8 C3.38 8 -1.24 8 -6 8 C-6 7.67 -6 7.34 -6 7 C-3.69 7 -1.38 7 1 7 C1.33 6.34 1.66 5.68 2 5 C2.33 5.33 2.66 5.66 3 6 C3 4.68 3 3.36 3 2 C2.01 2.495 2.01 2.495 1 3 C0.67 2.01 0.34 1.02 0 0 Z " fill="#4894CB" transform="translate(334,294)"/>
<path d="M0 0 C1.32 0 2.64 0 4 0 C5.45184478 4.53701494 6.23509196 8.18061476 6 13 C2.81684144 11.40842072 2.14357323 8.19527816 1 5 C0.3125 2.0625 0.3125 2.0625 0 0 Z " fill="#252A33" transform="translate(281,56)"/>
<path d="M0 0 C2.97 0 5.94 0 9 0 C9 1.98 9 3.96 9 6 C8.67 6 8.34 6 8 6 C8 4.35 8 2.7 8 1 C7.01 1.495 7.01 1.495 6 2 C5.34786708 4.02463255 5.34786708 4.02463255 5 6 C3.35 6 1.7 6 0 6 C0 4.02 0 2.04 0 0 Z " fill="#7B7C83" transform="translate(386,377)"/>
<path d="M0 0 C2 0 4 0 6 0 C6.33 1.98 6.66 3.96 7 6 C4.69 6.33 2.38 6.66 0 7 C-0.38133299 5.0085944 -0.71325582 3.00720923 -1 1 C-0.67 0.67 -0.34 0.34 0 0 Z " fill="#3FB99F" transform="translate(179,296)"/>
<path d="M0 0 C0.33 0.66 0.66 1.32 1 2 C1.66 2.33 2.32 2.66 3 3 C2.67 3.99 2.34 4.98 2 6 C2.66 6 3.32 6 4 6 C4 4.68 4 3.36 4 2 C4.99 2.33 5.98 2.66 7 3 C6.67 4.98 6.34 6.96 6 9 C3.03 8.505 3.03 8.505 0 8 C-1.125 2.25 -1.125 2.25 0 0 Z " fill="#9AD4EC" transform="translate(340,293)"/>
<path d="M0 0 C1.32 0 2.64 0 4 0 C4 0.66 4 1.32 4 2 C4.66 2 5.32 2 6 2 C6 2.99 6 3.98 6 5 C7.32 5.33 8.64 5.66 10 6 C8.35 7.32 6.7 8.64 5 10 C5 8.02 5 6.04 5 4 C3.02 4 1.04 4 -1 4 C-0.67 2.68 -0.34 1.36 0 0 Z " fill="#4A9ACD" transform="translate(402,291)"/>
<path d="M0 0 C0.66 0 1.32 0 2 0 C2 1.32 2 2.64 2 4 C3.32 4 4.64 4 6 4 C6 4.66 6 5.32 6 6 C4.68 6 3.36 6 2 6 C2 7.32 2 8.64 2 10 C1.34 10 0.68 10 0 10 C0 8.68 0 7.36 0 6 C-1.32 6 -2.64 6 -4 6 C-4 5.34 -4 4.68 -4 4 C-2.68 4 -1.36 4 0 4 C0 2.68 0 1.36 0 0 Z " fill="#D9DCF2" transform="translate(119,374)"/>
<path d="M0 0 C0.99 1.485 0.99 1.485 2 3 C4.05925139 3.72382467 4.05925139 3.72382467 6 4 C5.67 5.65 5.34 7.3 5 9 C3.35 9 1.7 9 0 9 C0 6.03 0 3.06 0 0 Z " fill="#85E6D2" transform="translate(188,292)"/>
<path d="M0 0 C1.53851415 4.97961831 1.0278351 9.94519902 0 15 C-2.0625 17.6875 -2.0625 17.6875 -4 19 C-3.37968409 12.42465139 -1.85102717 6.33307408 0 0 Z " fill="#CFE2ED" transform="translate(307,59)"/>
<path d="M0 0 C0.66 0 1.32 0 2 0 C3.30267176 5.50016964 2.71033431 10.47032059 2 16 C1.34 16 0.68 16 0 16 C0 10.72 0 5.44 0 0 Z " fill="#302527" transform="translate(352,61)"/>
<path d="M0 0 C1.8125 1.1875 1.8125 1.1875 2.8125 2.1875 C2.85313832 3.85367115 2.855221 5.52138095 2.8125 7.1875 C2.1525 7.1875 1.4925 7.1875 0.8125 7.1875 C0.4825 5.2075 0.1525 3.2275 -0.1875 1.1875 C-0.5175 2.1775 -0.8475 3.1675 -1.1875 4.1875 C-3.1675 4.1875 -5.1475 4.1875 -7.1875 4.1875 C-6.1875 1.1875 -6.1875 1.1875 -4.375 -0.125 C-2.1875 -0.8125 -2.1875 -0.8125 0 0 Z " fill="#7E858F" transform="translate(346.1875,62.8125)"/>
<path d="M0 0 C0 0.66 0 1.32 0 2 C-1.27875 2.2475 -2.5575 2.495 -3.875 2.75 C-7.26747318 3.51990586 -7.26747318 3.51990586 -9.5 6.125 C-9.665 6.74375 -9.83 7.3625 -10 8 C-10.33 6.68 -10.66 5.36 -11 4 C-10.34 3.67 -9.68 3.34 -9 3 C-8.34 2.01 -7.68 1.02 -7 0 C-3.86650268 -1.04449911 -3.01031744 -0.93423645 0 0 Z " fill="#F4F2E6" transform="translate(318,65)"/>
<path d="M0 0 C1.32 0.66 2.64 1.32 4 2 C4 3.98 4 5.96 4 8 C3.01 8.33 2.02 8.66 1 9 C-0.61949011 6.42786866 -1.04408751 5.32330841 -0.625 2.25 C-0.41875 1.5075 -0.2125 0.765 0 0 Z " fill="#F7F2E6" transform="translate(465,64)"/>
<path d="M0 0 C2.625 0.25 2.625 0.25 4.4375 1.3125 C6.23342137 4.24268751 5.81477574 6.8972953 5.625 10.25 C4.965 10.25 4.305 10.25 3.625 10.25 C3.625 8.27 3.625 6.29 3.625 4.25 C3.026875 4.12625 2.42875 4.0025 1.8125 3.875 C-0.375 3.25 -0.375 3.25 -3.375 1.25 C-2.375 0.25 -2.375 0.25 0 0 Z " fill="#2A3442" transform="translate(485.375,61.75)"/>
<path d="M0 0 C0.99 0 1.98 0 3 0 C2.71682074 1.60568666 2.42312209 3.20952047 2.125 4.8125 C1.96257812 5.70582031 1.80015625 6.59914063 1.6328125 7.51953125 C1 10 1 10 -1 13 C-3.42857143 6.71428571 -3.42857143 6.71428571 -2 3 C-1.67 3.33 -1.34 3.66 -1 4 C-0.67 2.68 -0.34 1.36 0 0 Z " fill="#E8EAE2" transform="translate(289,56)"/>
<path d="M0 0 C1.32 0.33 2.64 0.66 4 1 C4.33 5.62 4.66 10.24 5 15 C4.01 15 3.02 15 2 15 C1.90912109 13.62714844 1.90912109 13.62714844 1.81640625 12.2265625 C1.69072266 10.44378906 1.69072266 10.44378906 1.5625 8.625 C1.48128906 7.44164063 1.40007812 6.25828125 1.31640625 5.0390625 C1.18915064 2.08481099 1.18915064 2.08481099 0 0 Z " fill="#1B2E41" transform="translate(397,62)"/>
<path d="M0 0 C0.33 0.66 0.66 1.32 1 2 C1.66 2 2.32 2 3 2 C4.83691257 5.78187881 5.15837626 7.94568308 4 12 C2.68 12 1.36 12 0 12 C0.33 11.34 0.66 10.68 1 10 C1.35169068 8.67139075 1.68770276 7.33841672 2 6 C1.34 6 0.68 6 0 6 C-0.38218767 4.34385343 -0.71395102 2.67542976 -1 1 C-0.67 0.67 -0.34 0.34 0 0 Z " fill="#4394CC" transform="translate(421,290)"/>
<path d="M0 0 C0.99 0.33 1.98 0.66 3 1 C2.67 2.98 2.34 4.96 2 7 C-1.28976808 8.09658936 -2.71303767 7.79953138 -6 7 C-5.34 6.34 -4.68 5.68 -4 5 C-4.33 4.34 -4.66 3.68 -5 3 C-3.35 3 -1.7 3 0 3 C0 2.01 0 1.02 0 0 Z " fill="#5BCAB4" transform="translate(238,295)"/>
<path d="M0 0 C1.125 1.5625 1.125 1.5625 2 4 C1.1543834 7.94621081 -0.02715326 11.47705939 -2 15 C-2.33 15 -2.66 15 -3 15 C-2.44854729 9.76119922 -1.57077907 5.02649303 0 0 Z " fill="#DAE5E7" transform="translate(294,62)"/>
<path d="M0 0 C2.91517292 1.07401108 4.77810176 1.77810176 7 4 C7.125 7.625 7.125 7.625 7 11 C6.34 11 5.68 11 5 11 C5 9.02 5 7.04 5 5 C3.68 4.67 2.36 4.34 1 4 C0.67 2.68 0.34 1.36 0 0 Z " fill="#2E3846" transform="translate(466,61)"/>
<path d="M0 0 C4.75 0.875 4.75 0.875 7 2 C7 3.65 7 5.3 7 7 C5.02 7.99 5.02 7.99 3 9 C3.020625 8.236875 3.04125 7.47375 3.0625 6.6875 C3.12942841 3.89814214 3.12942841 3.89814214 2 1 C1.34 0.67 0.68 0.34 0 0 Z " fill="#424549" transform="translate(328,376)"/>
<path d="M0 0 C0.33 0 0.66 0 1 0 C1 2.97 1 5.94 1 9 C-0.65 8.67 -2.3 8.34 -4 8 C-3.67 6.35 -3.34 4.7 -3 3 C-2.01 3 -1.02 3 0 3 C0 2.01 0 1.02 0 0 Z " fill="#80E6D8" transform="translate(205,292)"/>
<path d="M0 0 C1.2065625 0.0309375 1.2065625 0.0309375 2.4375 0.0625 C2.1075 1.7125 1.7775 3.3625 1.4375 5.0625 C0.1175 5.3925 -1.2025 5.7225 -2.5625 6.0625 C-2.94468767 4.40635343 -3.27645102 2.73792976 -3.5625 1.0625 C-2.5625 0.0625 -2.5625 0.0625 0 0 Z " fill="#919098" transform="translate(239.5625,245.9375)"/>
<path d="M0 0 C1.16402344 0.14501953 1.16402344 0.14501953 2.3515625 0.29296875 C4.375 0.8125 4.375 0.8125 6.375 2.8125 C1.425 2.8125 -3.525 2.8125 -8.625 2.8125 C-4.0982896 -0.5825328 -4.0982896 -0.5825328 0 0 Z " fill="#25292C" transform="translate(217.625,74.1875)"/>
<path d="M0 0 C2.475 0.495 2.475 0.495 5 1 C5 1.66 5 2.32 5 3 C6.98 3 8.96 3 11 3 C11.33 3.99 11.66 4.98 12 6 C8.8125 6.3125 8.8125 6.3125 5 6 C2.0625 3.5625 2.0625 3.5625 0 1 C0 0.67 0 0.34 0 0 Z " fill="#4698CE" transform="translate(382,290)"/>
<path d="M0 0 C0.99 0.33 1.98 0.66 3 1 C3 3.97 3 6.94 3 10 C1.02 9.34 -0.96 8.68 -3 8 C-1.68 7.67 -0.36 7.34 1 7 C0.67 4.69 0.34 2.38 0 0 Z " fill="#BCC1C3" transform="translate(356,164)"/>
<path d="M0 0 C0.66 0 1.32 0 2 0 C2.33 2.64 2.66 5.28 3 8 C0.525 9.485 0.525 9.485 -2 11 C-2.33 10.34 -2.66 9.68 -3 9 C-2.34 8.01 -1.68 7.02 -1 6 C-0.60986284 4.0103005 -0.26797351 2.00980131 0 0 Z " fill="#302F2E" transform="translate(487,66)"/>
<path d="M0 0 C0.33 0.66 0.66 1.32 1 2 C0.0409375 2.7425 0.0409375 2.7425 -0.9375 3.5 C-3.81515269 6.98806387 -3.70230736 9.53461041 -4 14 C-4.33 14 -4.66 14 -5 14 C-5 10.04 -5 6.08 -5 2 C-3.35 1.34 -1.7 0.68 0 0 Z " fill="#E5F4F7" transform="translate(414,63)"/>
<path d="M0 0 C0 2.33333333 0 4.66666667 0 7 C0.33 7.99 0.66 8.98 1 10 C-1.49361571 8.79618552 -3.68143083 7.54571278 -6 6 C-6.6875 3.875 -6.6875 3.875 -7 2 C-6.21625 2.04125 -5.4325 2.0825 -4.625 2.125 C-1.83883881 2.28728734 -1.83883881 2.28728734 0 0 Z " fill="#666769" transform="translate(680,7)"/>
<path d="M0 0 C1.58971965 2.38457948 2.86741593 4.6304124 4.125 7.1875 C4.47820312 7.90292969 4.83140625 8.61835937 5.1953125 9.35546875 C5.46085937 9.89816406 5.72640625 10.44085938 6 11 C4.35 11 2.7 11 1 11 C0.34 9.35 -0.32 7.7 -1 6 C-0.34 6 0.32 6 1 6 C0.67 4.02 0.34 2.04 0 0 Z " fill="#2E373E" transform="translate(424,66)"/>
<path d="M0 0 C0.66 0 1.32 0 2 0 C2 1.98 2 3.96 2 6 C-1.75 7.125 -1.75 7.125 -4 6 C-4 4.35 -4 2.7 -4 1 C-3.01 1 -2.02 1 -1 1 C-0.67 0.67 -0.34 0.34 0 0 Z " fill="#32BAA4" transform="translate(244,296)"/>
<path d="M0 0 C1.32 0 2.64 0 4 0 C4 1.65 4 3.3 4 5 C5.32 4.67 6.64 4.34 8 4 C8 4.66 8 5.32 8 6 C5.36 6 2.72 6 0 6 C-0.38218767 4.34385343 -0.71395102 2.67542976 -1 1 C-0.67 0.67 -0.34 0.34 0 0 Z " fill="#4495CE" transform="translate(356,296)"/>
<path d="M0 0 C2 2 2 2 2.1953125 4.1640625 C2.16050781 5.38222656 2.16050781 5.38222656 2.125 6.625 C2.10695313 7.44226563 2.08890625 8.25953125 2.0703125 9.1015625 C2.04710937 9.72804688 2.02390625 10.35453125 2 11 C2.99 11.33 3.98 11.66 5 12 C3.0625 12.5625 3.0625 12.5625 1 13 C0 12 0 12 -0.09765625 9.27734375 C-0.08605469 8.17519531 -0.07445312 7.07304688 -0.0625 5.9375 C-0.05347656 4.83277344 -0.04445313 3.72804688 -0.03515625 2.58984375 C-0.02355469 1.73519531 -0.01195312 0.88054687 0 0 Z " fill="#33281A" transform="translate(327,64)"/>
<path d="M0 0 C3.18518519 6.37037037 3.18518519 6.37037037 2.0625 10.1875 C1.711875 11.115625 1.36125 12.04375 1 13 C0.34 13 -0.32 13 -1 13 C-0.67 8.71 -0.34 4.42 0 0 Z " fill="#F6F8F5" transform="translate(308,56)"/>
<path d="M0 0 C2.6875 0.3125 2.6875 0.3125 5 1 C5.33 1.99 5.66 2.98 6 4 C3.08517222 4.80967438 1.53886783 5.21845993 -1.3125 4.0625 C-1.869375 3.711875 -2.42625 3.36125 -3 3 C-1.8125 1.4375 -1.8125 1.4375 0 0 Z " fill="#8A8D90" transform="translate(213,61)"/>
<path d="M0 0 C0.33 0.66 0.66 1.32 1 2 C1.66 2.33 2.32 2.66 3 3 C2.34 3 1.68 3 1 3 C1 4.32 1 5.64 1 7 C1.66 7.33 2.32 7.66 3 8 C2.01 8 1.02 8 0 8 C0 6.35 0 4.7 0 3 C-1.32 3.33 -2.64 3.66 -4 4 C-4 4.66 -4 5.32 -4 6 C-3.01 6.66 -2.02 7.32 -1 8 C-2.65 7.67 -4.3 7.34 -6 7 C-5.67 5.35 -5.34 3.7 -5 2 C-3.35 2 -1.7 2 0 2 C0 1.34 0 0.68 0 0 Z " fill="#B8F1FE" transform="translate(360,293)"/>
<path d="M0 0 C1.60031344 3.20062687 0.03173691 5.72271806 -1 9 C-2.32 8.67 -3.64 8.34 -5 8 C-5 6.68 -5 5.36 -5 4 C-4.01 3.67 -3.02 3.34 -2 3 C-1.34 2.01 -0.68 1.02 0 0 Z " fill="#77DCCB" transform="translate(220,292)"/>
<path d="M0 0 C0.66 0 1.32 0 2 0 C2.33 0.99 2.66 1.98 3 3 C3.66 3.33 4.32 3.66 5 4 C5 5.32 5 6.64 5 8 C1.125 9 1.125 9 0 9 C0 6.03 0 3.06 0 0 Z " fill="#A5E5FA" transform="translate(419,292)"/>
<path d="M0 0 C1.32 0 2.64 0 4 0 C5 2 5 2 5 6 C4.34 6 3.68 6 3 6 C3 5.34 3 4.68 3 4 C1.02 4.33 -0.96 4.66 -3 5 C-3.33 4.34 -3.66 3.68 -4 3 C-2.68 3 -1.36 3 0 3 C0 2.01 0 1.02 0 0 Z " fill="#A8ADB0" transform="translate(266,246)"/>
<path d="M0 0 C1.98 0.495 1.98 0.495 4 1 C3.67 2.65 3.34 4.3 3 6 C1.68 5.67 0.36 5.34 -1 5 C-0.67 3.35 -0.34 1.7 0 0 Z " fill="#888A8D" transform="translate(319,168)"/>
<path d="M0 0 C3.375 -0.125 3.375 -0.125 7 0 C7.66 0.66 8.32 1.32 9 2 C5.5980513 4.09350689 2.94727588 4.17942163 -1 4 C-0.67 2.68 -0.34 1.36 0 0 Z " fill="#363C44" transform="translate(340,73)"/>
<path d="M0 0 C0.66 0 1.32 0 2 0 C2 3.96 2 7.92 2 12 C1.01 12.495 1.01 12.495 0 13 C-0.83796731 8.34462607 -1.0161692 4.62921525 0 0 Z " fill="#EEE3D2" transform="translate(325,64)"/>
<path d="M0 0 C2.875 -0.1875 2.875 -0.1875 6 0 C6.66 0.99 7.32 1.98 8 3 C6.25 5.0625 6.25 5.0625 4 7 C1.75 6.75 1.75 6.75 0 6 C1.32 5.34 2.64 4.68 4 4 C4 3.34 4 2.68 4 2 C2.68 2 1.36 2 0 2 C0 1.34 0 0.68 0 0 Z " fill="#4F5257" transform="translate(213,65)"/>
<path d="M0 0 C3.02419525 0.58803797 6.01758453 1.22678118 9 2 C9 2.66 9 3.32 9 4 C4.94568308 5.15837626 2.78187881 4.83691257 -1 3 C-0.67 2.01 -0.34 1.02 0 0 Z " fill="#2DB297" transform="translate(197,299)"/>
<path d="M0 0 C2.475 0.495 2.475 0.495 5 1 C5 2.65 5 4.3 5 6 C3.35 6 1.7 6 0 6 C0.185625 5.38125 0.37125 4.7625 0.5625 4.125 C1.23686176 1.95839822 1.23686176 1.95839822 0 0 Z " fill="#A1DBEF" transform="translate(378,295)"/>
<path d="M0 0 C2.475 0.495 2.475 0.495 5 1 C5 2.65 5 4.3 5 6 C3.35 6 1.7 6 0 6 C0.185625 5.38125 0.37125 4.7625 0.5625 4.125 C1.23686176 1.95839822 1.23686176 1.95839822 0 0 Z " fill="#A1DAEF" transform="translate(348,295)"/>
<path d="M0 0 C2.475 0.495 2.475 0.495 5 1 C5 2.65 5 4.3 5 6 C3.35 6 1.7 6 0 6 C0.185625 5.38125 0.37125 4.7625 0.5625 4.125 C1.23686176 1.95839822 1.23686176 1.95839822 0 0 Z " fill="#8DE8DE" transform="translate(222,295)"/>
<path d="M0 0 C2.0625 0.4375 2.0625 0.4375 4 1 C4.33 2.65 4.66 4.3 5 6 C4.67 5.01 4.34 4.02 4 3 C2.68 3 1.36 3 0 3 C0 3.66 0 4.32 0 5 C0.99 5.66 1.98 6.32 3 7 C1.35 6.67 -0.3 6.34 -2 6 C-1.125 1.125 -1.125 1.125 0 0 Z " fill="#A9DAF6" transform="translate(316,294)"/>
<path d="M0 0 C1.32 1.32 2.64 2.64 4 4 C3.01 5.485 3.01 5.485 2 7 C1.31822584 8.32567199 0.64808564 9.65753688 0 11 C-0.66 11 -1.32 11 -2 11 C-1.34 7.37 -0.68 3.74 0 0 Z " fill="#403934" transform="translate(291,58)"/>
<path d="M0 0 C1.32 0.33 2.64 0.66 4 1 C2.515 7.435 2.515 7.435 1 14 C0.67 14 0.34 14 0 14 C0.08378906 13.32453125 0.16757812 12.6490625 0.25390625 11.953125 C0.35574219 11.06109375 0.45757812 10.1690625 0.5625 9.25 C0.66691406 8.36828125 0.77132813 7.4865625 0.87890625 6.578125 C0.99456676 4.11567549 0.73638695 2.33461936 0 0 Z " fill="#243243" transform="translate(302,63)"/>
<path d="M0 0 C0.99 0.33 1.98 0.66 3 1 C2.67 3.97 2.34 6.94 2 10 C0.68 9.67 -0.64 9.34 -2 9 C-1.34 9 -0.68 9 0 9 C0 6.03 0 3.06 0 0 Z " fill="#26B79D" transform="translate(208,292)"/>
<path d="M0 0 C1.0326802 2.78823655 1.04509293 3.8677274 0.0625 6.75 C-0.288125 7.4925 -0.63875 8.235 -1 9 C-1.66 9 -2.32 9 -3 9 C-3 6.36 -3 3.72 -3 1 C-2.01 1.33 -1.02 1.66 0 2 C0 1.34 0 0.68 0 0 Z " fill="#8BCCE8" transform="translate(376,292)"/>
<path d="M0 0 C2.0625 0.4375 2.0625 0.4375 4 1 C4 1.66 4 2.32 4 3 C3.01 3.33 2.02 3.66 1 4 C2.65 4 4.3 4 6 4 C6 4.66 6 5.32 6 6 C4.02 6 2.04 6 0 6 C-0.38218767 4.34385343 -0.71395102 2.67542976 -1 1 C-0.67 0.67 -0.34 0.34 0 0 Z " fill="#545556" transform="translate(262,246)"/>
<path d="M0 0 C0.33 0 0.66 0 1 0 C1.02696365 1.79158489 1.04637917 3.58328473 1.0625 5.375 C1.07410156 6.37273437 1.08570313 7.37046875 1.09765625 8.3984375 C1 11 1 11 0 13 C-0.99 12.67 -1.98 12.34 -3 12 C-2.690625 11.319375 -2.38125 10.63875 -2.0625 9.9375 C-0.86629351 6.63034088 -0.40994603 3.48454122 0 0 Z " fill="#E8F8FB" transform="translate(491,65)"/>
<path d="M0 0 C0.66 1.32 1.32 2.64 2 4 C2.66 3.34 3.32 2.68 4 2 C4.33 3.32 4.66 4.64 5 6 C4.01 6.495 4.01 6.495 3 7 C1.86649466 9.01669827 1.86649466 9.01669827 1 11 C0.63890458 9.35567294 0.28629924 7.7094792 -0.0625 6.0625 C-0.25972656 5.14597656 -0.45695312 4.22945313 -0.66015625 3.28515625 C-0.77230469 2.53105469 -0.88445312 1.77695313 -1 1 C-0.67 0.67 -0.34 0.34 0 0 Z " fill="#574D45" transform="translate(284,64)"/>
<path d="M0 0 C0.66 0 1.32 0 2 0 C2 1.65 2 3.3 2 5 C2.66 5.33 3.32 5.66 4 6 C2.68 7.32 1.36 8.64 0 10 C0 6.7 0 3.4 0 0 Z " fill="#E0EFEC" transform="translate(420,56)"/>
<path d="M0 0 C0.99 0 1.98 0 3 0 C3 1.65 3 3.3 3 5 C4.32 5.33 5.64 5.66 7 6 C6.67 6.99 6.34 7.98 6 9 C5.67 8.01 5.34 7.02 5 6 C4.34 6 3.68 6 3 6 C2.67 6.66 2.34 7.32 2 8 C1.34 5.36 0.68 2.72 0 0 Z " fill="#EAF4FC" transform="translate(11,0)"/>
<path d="M0 0 C1.32 0 2.64 0 4 0 C4 1.65 4 3.3 4 5 C2.68 5.33 1.36 5.66 0 6 C0 4.02 0 2.04 0 0 Z " fill="#6BD5C5" transform="translate(259,295)"/>
<path d="M0 0 C0.99 0.33 1.98 0.66 3 1 C2.835 1.53625 2.67 2.0725 2.5 2.625 C1.90339788 5.45886009 1.9343632 8.1119806 2 11 C1.34 10.67 0.68 10.34 0 10 C-0.44921875 7.96875 -0.44921875 7.96875 -0.6875 5.5 C-0.77386719 4.6853125 -0.86023438 3.870625 -0.94921875 3.03125 C-0.96597656 2.3609375 -0.98273438 1.690625 -1 1 C-0.67 0.67 -0.34 0.34 0 0 Z " fill="#F1EDEE" transform="translate(211,242)"/>
<path d="M0 0 C0.66 0 1.32 0 2 0 C3.125 2.25 3.125 2.25 4 5 C3.125 7.3125 3.125 7.3125 2 9 C1.34 9 0.68 9 0 9 C0 6.03 0 3.06 0 0 Z " fill="#717171" transform="translate(309,165)"/>
<path d="M0 0 C2.31 0 4.62 0 7 0 C7 0.99 7 1.98 7 3 C5.02 3.33 3.04 3.66 1 4 C0.67 2.68 0.34 1.36 0 0 Z " fill="#2D3438" transform="translate(354,61)"/>
<path d="M0 0 C2.31 0.66 4.62 1.32 7 2 C4 5 4 5 1.4375 5.0625 C0.2309375 5.0315625 0.2309375 5.0315625 -1 5 C-0.67 3.35 -0.34 1.7 0 0 Z " fill="#4891C7" transform="translate(377,292)"/>
<path d="M0 0 C0.33 0 0.66 0 1 0 C1 3.3 1 6.6 1 10 C1.99 10 2.98 10 4 10 C4 10.99 4 11.98 4 13 C1.525 12.01 1.525 12.01 -1 11 C-0.67 7.37 -0.34 3.74 0 0 Z " fill="#394E63" transform="translate(330,64)"/>
<path d="M0 0 C0.33 0 0.66 0 1 0 C1 3.3 1 6.6 1 10 C-1.475 9.01 -1.475 9.01 -4 8 C-3.525625 7.608125 -3.05125 7.21625 -2.5625 6.8125 C-0.64820367 4.59191626 -0.38733012 2.86624291 0 0 Z " fill="#F4F4EA" transform="translate(222,66)"/>
<path d="M0 0 C0.66 0 1.32 0 2 0 C2.33 1.98 2.66 3.96 3 6 C1.02 6 -0.96 6 -3 6 C-2.67 5.01 -2.34 4.02 -2 3 C-1.01 3 -0.02 3 1 3 C0.67 2.01 0.34 1.02 0 0 Z " fill="#282324" transform="translate(344,64)"/>
<path d="M0 0 C1.32 0 2.64 0 4 0 C4 1.98 4 3.96 4 6 C2.68 6 1.36 6 0 6 C0.185625 5.38125 0.37125 4.7625 0.5625 4.125 C1.23686176 1.95839822 1.23686176 1.95839822 0 0 Z " fill="#646062" transform="translate(348,377)"/>
<path d="M0 0 C1.98 0.495 1.98 0.495 4 1 C4 1.66 4 2.32 4 3 C3.01 3.33 2.02 3.66 1 4 C1.99 4.66 2.98 5.32 4 6 C2.35 5.67 0.7 5.34 -1 5 C-0.67 3.35 -0.34 1.7 0 0 Z " fill="#525455" transform="translate(398,377)"/>
<path d="M0 0 C1.98 0.495 1.98 0.495 4 1 C4 1.66 4 2.32 4 3 C3.01 3.33 2.02 3.66 1 4 C1.99 4.66 2.98 5.32 4 6 C2.35 5.67 0.7 5.34 -1 5 C-0.67 3.35 -0.34 1.7 0 0 Z " fill="#505556" transform="translate(381,377)"/>
<path d="M0 0 C1.98 0.495 1.98 0.495 4 1 C4 1.66 4 2.32 4 3 C3.01 3.33 2.02 3.66 1 4 C1.99 4.66 2.98 5.32 4 6 C2.35 5.67 0.7 5.34 -1 5 C-0.67 3.35 -0.34 1.7 0 0 Z " fill="#A8F2ED" transform="translate(196,295)"/>
<path d="M0 0 C1.98 0.495 1.98 0.495 4 1 C4 1.66 4 2.32 4 3 C3.01 3.33 2.02 3.66 1 4 C1.99 4.66 2.98 5.32 4 6 C2.35 5.67 0.7 5.34 -1 5 C-0.67 3.35 -0.34 1.7 0 0 Z " fill="#E3ECEA" transform="translate(539,295)"/>
<path d="M0 0 C1.98 0.495 1.98 0.495 4 1 C4 1.66 4 2.32 4 3 C3.01 3.33 2.02 3.66 1 4 C1.99 4.66 2.98 5.32 4 6 C2.35 5.67 0.7 5.34 -1 5 C-0.67 3.35 -0.34 1.7 0 0 Z " fill="#DFECEA" transform="translate(503,295)"/>
<path d="M0 0 C1.32 0 2.64 0 4 0 C4 1.98 4 3.96 4 6 C2.68 6 1.36 6 0 6 C0.185625 5.38125 0.37125 4.7625 0.5625 4.125 C1.23686176 1.95839822 1.23686176 1.95839822 0 0 Z " fill="#DCE5E6" transform="translate(490,295)"/>
<path d="M0 0 C1.98 0.495 1.98 0.495 4 1 C4 1.66 4 2.32 4 3 C3.01 3.33 2.02 3.66 1 4 C1.99 4.66 2.98 5.32 4 6 C2.35 5.67 0.7 5.34 -1 5 C-0.67 3.35 -0.34 1.7 0 0 Z " fill="#B8ECF5" transform="translate(389,295)"/>
<path d="M0 0 C1.98 0.495 1.98 0.495 4 1 C4 1.66 4 2.32 4 3 C3.01 3.33 2.02 3.66 1 4 C1.99 4.66 2.98 5.32 4 6 C2.35 5.67 0.7 5.34 -1 5 C-0.67 3.35 -0.34 1.7 0 0 Z " fill="#A3F2EA" transform="translate(233,295)"/>
<path d="M0 0 C1.32 0 2.64 0 4 0 C4 1.98 4 3.96 4 6 C2.68 6 1.36 6 0 6 C0.185625 5.38125 0.37125 4.7625 0.5625 4.125 C1.23686176 1.95839822 1.23686176 1.95839822 0 0 Z " fill="#DBE6E6" transform="translate(525,295)"/>
<path d="M0 0 C1.98 0.495 1.98 0.495 4 1 C4 1.66 4 2.32 4 3 C3.01 3.33 2.02 3.66 1 4 C1.99 4.66 2.98 5.32 4 6 C2.35 5.67 0.7 5.34 -1 5 C-0.67 3.35 -0.34 1.7 0 0 Z " fill="#505456" transform="translate(298,246)"/>
<path d="M0 0 C1.98 0.495 1.98 0.495 4 1 C4 1.66 4 2.32 4 3 C3.01 3.33 2.02 3.66 1 4 C1.99 4.66 2.98 5.32 4 6 C2.35 5.67 0.7 5.34 -1 5 C-0.67 3.35 -0.34 1.7 0 0 Z " fill="#505455" transform="translate(288,246)"/>
<path d="M0 0 C1.32 0 2.64 0 4 0 C3.67 1.98 3.34 3.96 3 6 C2.01 6 1.02 6 0 6 C0 4.02 0 2.04 0 0 Z " fill="#99A1A1" transform="translate(223,246)"/>
<path d="M0 0 C1.98 0.495 1.98 0.495 4 1 C4 1.66 4 2.32 4 3 C3.01 3.33 2.02 3.66 1 4 C1.99 4.66 2.98 5.32 4 6 C2.35 5.67 0.7 5.34 -1 5 C-0.67 3.35 -0.34 1.7 0 0 Z " fill="#4F5458" transform="translate(218,246)"/>
<path d="M0 0 C1.98 0.495 1.98 0.495 4 1 C4 1.66 4 2.32 4 3 C3.01 3.33 2.02 3.66 1 4 C1.99 4.66 2.98 5.32 4 6 C2.35 5.67 0.7 5.34 -1 5 C-0.67 3.35 -0.34 1.7 0 0 Z " fill="#4F5456" transform="translate(378,168)"/>
<path d="M0 0 C1.98 0.495 1.98 0.495 4 1 C4 1.66 4 2.32 4 3 C3.01 3.33 2.02 3.66 1 4 C1.99 4.66 2.98 5.32 4 6 C2.35 5.67 0.7 5.34 -1 5 C-0.67 3.35 -0.34 1.7 0 0 Z " fill="#4F535A" transform="translate(362,168)"/>
<path d="M0 0 C1.98 0.495 1.98 0.495 4 1 C4 1.66 4 2.32 4 3 C3.01 3.33 2.02 3.66 1 4 C1.99 4.66 2.98 5.32 4 6 C2.35 5.67 0.7 5.34 -1 5 C-0.67 3.35 -0.34 1.7 0 0 Z " fill="#545454" transform="translate(353,168)"/>
<path d="M0 0 C1.98 0.495 1.98 0.495 4 1 C4 1.66 4 2.32 4 3 C3.01 3.33 2.02 3.66 1 4 C1.99 4.66 2.98 5.32 4 6 C2.35 5.67 0.7 5.34 -1 5 C-0.67 3.35 -0.34 1.7 0 0 Z " fill="#54535A" transform="translate(339,168)"/>
<path d="M0 0 C1.98 0.495 1.98 0.495 4 1 C4 1.66 4 2.32 4 3 C3.01 3.33 2.02 3.66 1 4 C1.99 4.66 2.98 5.32 4 6 C2.35 5.67 0.7 5.34 -1 5 C-0.67 3.35 -0.34 1.7 0 0 Z " fill="#CED4DA" transform="translate(378,129)"/>
<path d="M0 0 C1.98 0.495 1.98 0.495 4 1 C4 1.66 4 2.32 4 3 C3.01 3.33 2.02 3.66 1 4 C1.99 4.66 2.98 5.32 4 6 C2.35 5.67 0.7 5.34 -1 5 C-0.67 3.35 -0.34 1.7 0 0 Z " fill="#CBD5D9" transform="translate(347,129)"/>
<path d="M0 0 C1.98 0.495 1.98 0.495 4 1 C4 1.66 4 2.32 4 3 C3.01 3.33 2.02 3.66 1 4 C1.99 4.66 2.98 5.32 4 6 C2.35 5.67 0.7 5.34 -1 5 C-0.67 3.35 -0.34 1.7 0 0 Z " fill="#CED3DB" transform="translate(338,129)"/>
<path d="M0 0 C0.33 0 0.66 0 1 0 C1.268125 0.94875 1.53625 1.8975 1.8125 2.875 C2.74986588 6.25267273 2.74986588 6.25267273 6 8 C3.625 8.125 3.625 8.125 1 8 C-1 6 -1 6 -1.1875 3.4375 C-1 1 -1 1 0 0 Z " fill="#493936" transform="translate(389,69)"/>
<path d="M0 0 C2.31 0 4.62 0 7 0 C6.67 1.32 6.34 2.64 6 4 C4.35 3.67 2.7 3.34 1 3 C0.67 2.01 0.34 1.02 0 0 Z " fill="#E5E8E3" transform="translate(211,66)"/>
<path d="M0 0 C2.0625 0.4375 2.0625 0.4375 4 1 C4 1.66 4 2.32 4 3 C1.69 3.66 -0.62 4.32 -3 5 C-1.125 1.125 -1.125 1.125 0 0 Z " fill="#F2F2EE" transform="translate(393,64)"/>
<path d="M0 0 C0.99 0 1.98 0 3 0 C3 1.98 3 3.96 3 6 C1.68 6 0.36 6 -1 6 C-0.67 4.02 -0.34 2.04 0 0 Z " fill="#9B9D9F" transform="translate(375,377)"/>
<path d="M0 0 C0.99 0 1.98 0 3 0 C3.33 1.98 3.66 3.96 4 6 C2.68 6 1.36 6 0 6 C0 4.02 0 2.04 0 0 Z " fill="#999BA1" transform="translate(354,377)"/>
<path d="M0 0 C-0.33 1.65 -0.66 3.3 -1 5 C-2.32 4.67 -3.64 4.34 -5 4 C-4.67 3.01 -4.34 2.02 -4 1 C-2 0 -2 0 0 0 Z " fill="#E2E8E4" transform="translate(397,69)"/>
<path d="M0 0 C-0.33 1.65 -0.66 3.3 -1 5 C-2.32 4.67 -3.64 4.34 -5 4 C-4.67 3.01 -4.34 2.02 -4 1 C-2 0 -2 0 0 0 Z " fill="#E6E8E0" transform="translate(318,69)"/>
<path d="M0 0 C-0.33 1.32 -0.66 2.64 -1 4 C-1 3.34 -1 2.68 -1 2 C-1.763125 2.37125 -2.52625 2.7425 -3.3125 3.125 C-4.6428125 3.558125 -4.6428125 3.558125 -6 4 C-6.99 3.34 -7.98 2.68 -9 2 C-3.375 0 -3.375 0 0 0 Z " fill="#3D3E39" transform="translate(319,67)"/>
<path d="M0 0 C2.31 0.66 4.62 1.32 7 2 C4.64046906 4.35953094 3.22104383 4.49141413 0 5 C0 3.35 0 1.7 0 0 Z " fill="#1F2833" transform="translate(206,63)"/>
<path d="M0 0 C1.98 0 3.96 0 6 0 C6 1.32 6 2.64 6 4 C3.03 3.505 3.03 3.505 0 3 C0 2.01 0 1.02 0 0 Z " fill="#242C39" transform="translate(450,56)"/>
<path d="M0 0 C0.66 1.32 1.32 2.64 2 4 C1.01 4.495 1.01 4.495 0 5 C0.66 5.33 1.32 5.66 2 6 C2 6.66 2 7.32 2 8 C0.68 7.34 -0.64 6.68 -2 6 C-1.125 1.125 -1.125 1.125 0 0 Z " fill="#807F7C" transform="translate(327,377)"/>
<path d="M0 0 C2.125 0.375 2.125 0.375 4 1 C3.21625 1.598125 2.4325 2.19625 1.625 2.8125 C-1.14574323 4.91085249 -1.14574323 4.91085249 -3 8 C-2.25 2.25 -2.25 2.25 0 0 Z " fill="#AFB0B1" transform="translate(301,373)"/>
<path d="M0 0 C1.0625 1.8125 1.0625 1.8125 2 4 C1.67 4.99 1.34 5.98 1 7 C-0.32 7 -1.64 7 -3 7 C-2.67 6.34 -2.34 5.68 -2 5 C-1.835 4.319375 -1.67 3.63875 -1.5 2.9375 C-1 1 -1 1 0 0 Z " fill="#2BB494" transform="translate(268,295)"/>
<path d="M0 0 C0.99 0.33 1.98 0.66 3 1 C3 2.32 3 3.64 3 5 C1.68 5 0.36 5 -1 5 C-0.67 3.35 -0.34 1.7 0 0 Z " fill="#F1FEF9" transform="translate(161,297)"/>
<path d="M0 0 C2.31 0.33 4.62 0.66 7 1 C5.68 2.65 4.36 4.3 3 6 C2.67 4.68 2.34 3.36 2 2 C1.34 2 0.68 2 0 2 C0 1.34 0 0.68 0 0 Z " fill="#27B79B" transform="translate(215,290)"/>
<path d="M0 0 C0.66 0.66 1.32 1.32 2 2 C1.67 2.66 1.34 3.32 1 4 C1.66 4 2.32 4 3 4 C3 4.99 3 5.98 3 7 C1.68 6.67 0.36 6.34 -1 6 C-0.67 4.02 -0.34 2.04 0 0 Z " fill="#F3F3F5" transform="translate(32,9)"/>
<path d="M0 0 C-0.99 0.33 -1.98 0.66 -3 1 C-3 1.66 -3 2.32 -3 3 C-4.65 3 -6.3 3 -8 3 C-8 2.34 -8 1.68 -8 1 C-3.375 -1.125 -3.375 -1.125 0 0 Z " fill="#4194CC" transform="translate(363,292)"/>
<path d="M0 0 C0.66 0 1.32 0 2 0 C2 2.64 2 5.28 2 8 C1.01 7.67 0.02 7.34 -1 7 C-1.04254356 5.00045254 -1.04080783 2.99958364 -1 1 C-0.67 0.67 -0.34 0.34 0 0 Z " fill="#413427" transform="translate(476,65)"/>
<path d="M0 0 C0.66 0.33 1.32 0.66 2 1 C0.515 4.465 0.515 4.465 -1 8 C-1.33 8 -1.66 8 -2 8 C-2.125 5.125 -2.125 5.125 -2 2 C-1.34 1.34 -0.68 0.68 0 0 Z " fill="#D2E3ED" transform="translate(463,64)"/>
<path d="M0 0 C0.33 1.32 0.66 2.64 1 4 C-0.32 4.33 -1.64 4.66 -3 5 C-3 3.68 -3 2.36 -3 1 C-2.01 0.67 -1.02 0.34 0 0 Z " fill="#2C2D2A" transform="translate(223,62)"/>
<path d="M0 0 C1.98 0 3.96 0 6 0 C5.01 1.485 5.01 1.485 4 3 C1.375 3.1875 1.375 3.1875 -1 3 C-0.67 2.01 -0.34 1.02 0 0 Z " fill="#302F35" transform="translate(339,61)"/>
<path d="M0 0 C2.475 0.495 2.475 0.495 5 1 C4.67 2.65 4.34 4.3 4 6 C3.34 6 2.68 6 2 6 C2 4.35 2 2.7 2 1 C1.34 0.67 0.68 0.34 0 0 Z " fill="#848486" transform="translate(40,11)"/>
<path d="M0 0 C0.66 0 1.32 0 2 0 C2.33 2.31 2.66 4.62 3 7 C2.01 7 1.02 7 0 7 C0 4.69 0 2.38 0 0 Z " fill="#67686A" transform="translate(57,9)"/>
</svg>
