<?xml version="1.0" encoding="UTF-8"?>
<svg version="1.1" xmlns="http://www.w3.org/2000/svg" width="256" height="256">
<path d="M0 0 C1.12801025 0.05867249 1.12801025 0.05867249 2.27880859 0.11853027 C39.01366306 2.12882349 39.01366306 2.12882349 50.96875 13.78125 C69.89447229 34.96676003 63.95896331 86.04284227 62.49780273 112.06835938 C60.07488758 152.78752522 60.07488758 152.78752522 49.86328125 163.53125 C16.39677805 193.15019427 -80.62601362 178.350329 -122.9375 176.125 C-124.16936035 176.06054688 -125.4012207 175.99609375 -126.67041016 175.9296875 C-167.83399983 173.65539785 -167.83399983 173.65539785 -179.8125 161.5 C-194.10694959 143.51449536 -191.1499269 110.09477297 -191.125 88.25 C-191.12472809 87.35169464 -191.12445618 86.45338928 -191.12417603 85.52786255 C-191.04286979 26.95029544 -191.04286979 26.95029544 -177.75 12.3125 C-144.33804042 -17.70881675 -42.71867318 -2.24572464 0 0 Z M-88.9375 51.125 C-88.9375 75.545 -88.9375 99.965 -88.9375 125.125 C-81.15977331 121.27840786 -81.15977331 121.27840786 -73.625 117.1015625 C-72.70686523 116.56257324 -71.78873047 116.02358398 -70.84277344 115.46826172 C-69.8840332 114.90123535 -68.92529297 114.33420898 -67.9375 113.75 C-61.22516574 109.7988808 -54.5055905 105.86491927 -47.734375 102.015625 C-46.54552493 101.33781202 -45.35672236 100.65991572 -44.16796875 99.98193359 C-41.88759964 98.68155454 -39.60334836 97.38898696 -37.31640625 96.10009766 C-36.27871094 95.5076123 -35.24101562 94.91512695 -34.171875 94.3046875 C-33.25631836 93.78632324 -32.34076172 93.26795898 -31.39746094 92.73388672 C-28.8934558 91.0961938 -26.96866856 89.31209306 -24.9375 87.125 C-25.50855469 86.80450684 -26.07960937 86.48401367 -26.66796875 86.15380859 C-37.95434757 79.81307073 -49.20399328 73.41718605 -60.375 66.875 C-67.35142883 62.7910716 -74.33473766 58.72312934 -81.375 54.75 C-82.03749756 54.37456055 -82.69999512 53.99912109 -83.38256836 53.61230469 C-86.00707029 51.87476899 -86.00707029 51.87476899 -88.9375 51.125 Z " fill="#FFFFFF" transform="translate(191.9375,39.875)"/>
</svg>
